<?xml version="1.0"?>
<svg xmlns="http://www.w3.org/2000/svg" xmlns:xlink="http://www.w3.org/1999/xlink" xmlns:svgjs="http://svgjs.com/svgjs" version="1.1" width="512" height="512" x="0" y="0" viewBox="0 0 493.37 493.37" style="enable-background:new 0 0 512 512" xml:space="preserve" class=""><g><path xmlns="http://www.w3.org/2000/svg" d="m192.065 186.067v-5.107c0-8.836 7.164-16 16-16s16 7.164 16 16v5.107c0 8.836-7.164 16-16 16s-16-7.164-16-16zm93.239 16c8.836 0 16-7.164 16-16v-5.107c0-8.836-7.164-16-16-16s-16 7.164-16 16v5.107c0 8.836 7.164 16 16 16zm-182.29-8.328v-77.552c0-64.066 52.121-116.187 116.187-116.187h54.968c64.065 0 116.187 52.121 116.187 116.187v77.552c0 72.492-56.101 141-146.341 141-77.749 0-141.001-63.252-141.001-141zm32-77.552v6.023c23.501-4.382 42.049-20.036 50.931-41.065 3.438-8.141 12.828-11.951 20.964-8.514 8.141 3.438 11.952 12.824 8.514 20.964-1.47 3.481-3.366 7.383-5.745 11.49 48.746 11.731 98.772 14.563 148.606 8.352-1.458-45.151-38.617-81.437-84.115-81.437h-54.968c-46.42 0-84.187 37.766-84.187 84.187zm0 77.552c0 60.103 48.897 109 109 109h5.342c60.103 0 109-48.897 109-109v-48.083c-57.935 6.706-115.81 2.068-171.546-13.449-14.734 12.215-32.46 19.887-51.795 22.373v39.159zm308.671 277.563v6.068c0 8.836-7.164 16-16 16s-16-7.164-16-16v-6.068c0-48.891-39.776-88.667-88.667-88.667h-15.331c-7.017 27.134-31.706 47.235-61.002 47.235s-53.985-20.101-61.002-47.235h-15.331c-48.891 0-88.667 39.776-88.667 88.667v6.068c0 8.836-7.164 16-16 16s-16-7.164-16-16v-6.068c0-66.536 54.131-120.667 120.667-120.667h152.667c66.535 0 120.666 54.131 120.666 120.667zm-170.464-88.667h-53.073c12.289 20.258 40.772 20.279 53.073 0zm-79.975-112.275c21.943-.771 32.858-11.672 36.204-12.716 6.77-2.113 13.188 7.352 24.089 2.184 8.883-4.212 10.99-2.077 13.817-.205 9.505 6.294 19.632 10.276 32.767 10.737 8.81.315 16.241-6.583 16.552-15.429.31-8.831-6.598-16.242-15.429-16.552-3.463-.122-6.775-.778-9.841-1.952-7.329-2.806-19.386-16.971-44.721-8.316-15.52-5.302-27.126-2.593-38.338 4.831-4.465 2.957-8.916 5.181-16.223 5.438-8.831.31-15.739 7.721-15.429 16.552.311 8.831 7.723 15.76 16.552 15.428z" fill="#4a7c12" data-original="#000000" style="" class=""/></g></svg>
