<?xml version="1.0"?>
<svg xmlns="http://www.w3.org/2000/svg" xmlns:xlink="http://www.w3.org/1999/xlink" xmlns:svgjs="http://svgjs.com/svgjs" version="1.1" width="512" height="512" x="0" y="0" viewBox="0 0 512 512" style="enable-background:new 0 0 512 512" xml:space="preserve" class=""><g>
<g xmlns="http://www.w3.org/2000/svg">
	<g>
		<g>
			<path d="M145.067,221.867H128c-4.719,0-8.533,3.823-8.533,8.533s3.814,8.533,8.533,8.533h17.067c4.719,0,8.533-3.823,8.533-8.533     S149.786,221.867,145.067,221.867z" fill="#4a7c12" data-original="#000000" style="" class=""/>
			<path d="M145.067,375.467H128c-4.719,0-8.533,3.823-8.533,8.533s3.814,8.533,8.533,8.533h17.067c4.719,0,8.533-3.823,8.533-8.533     S149.786,375.467,145.067,375.467z" fill="#4a7c12" data-original="#000000" style="" class=""/>
			<path d="M145.067,273.067H128c-4.719,0-8.533,3.823-8.533,8.533s3.814,8.533,8.533,8.533h17.067c4.719,0,8.533-3.823,8.533-8.533     S149.786,273.067,145.067,273.067z" fill="#4a7c12" data-original="#000000" style="" class=""/>
			<path d="M110.933,68.267h-51.2c-4.719,0-8.533,3.823-8.533,8.533v366.933c0,18.825,15.309,34.133,34.133,34.133H281.6     c4.719,0,8.533-3.823,8.533-8.533s-3.814-8.533-8.533-8.533H85.333c-9.412,0-17.067-7.654-17.067-17.067v-358.4h42.667     c4.719,0,8.533-3.823,8.533-8.533S115.652,68.267,110.933,68.267z" fill="#4a7c12" data-original="#000000" style="" class=""/>
			<path d="M145.067,324.267H128c-4.719,0-8.533,3.823-8.533,8.533c0,4.71,3.814,8.533,8.533,8.533h17.067     c4.719,0,8.533-3.823,8.533-8.533C153.6,328.09,149.786,324.267,145.067,324.267z" fill="#4a7c12" data-original="#000000" style="" class=""/>
			<path d="M366.933,85.333H409.6v213.333c0,4.71,3.814,8.533,8.533,8.533c4.719,0,8.533-3.823,8.533-8.533V76.8     c0-4.71-3.814-8.533-8.533-8.533h-51.2c-4.719,0-8.533,3.823-8.533,8.533S362.214,85.333,366.933,85.333z" fill="#4a7c12" data-original="#000000" style="" class=""/>
			<path d="M187.733,281.6c0,4.71,3.814,8.533,8.533,8.533h153.6c4.719,0,8.533-3.823,8.533-8.533s-3.814-8.533-8.533-8.533h-153.6     C191.548,273.067,187.733,276.89,187.733,281.6z" fill="#4a7c12" data-original="#000000" style="" class=""/>
			<path d="M264.533,392.533c4.719,0,8.533-3.823,8.533-8.533s-3.814-8.533-8.533-8.533h-68.267c-4.719,0-8.533,3.823-8.533,8.533     s3.814,8.533,8.533,8.533H264.533z" fill="#4a7c12" data-original="#000000" style="" class=""/>
			<path d="M366.933,51.2h51.2c12.442,0,25.6,13.158,25.6,25.6v221.867c0,4.71,3.814,8.533,8.533,8.533s8.533-3.823,8.533-8.533     V76.8c0-21.931-20.736-42.667-42.667-42.667h-51.2c-4.719,0-8.533,3.823-8.533,8.533C358.4,47.377,362.214,51.2,366.933,51.2z" fill="#4a7c12" data-original="#000000" style="" class=""/>
			<path d="M429.167,395.034l-36.634,36.634L372.966,412.1c-3.337-3.337-8.73-3.337-12.066,0c-3.337,3.337-3.337,8.73,0,12.066     l25.6,25.6c1.664,1.664,3.849,2.5,6.033,2.5c2.185,0,4.369-0.836,6.033-2.5l42.667-42.667c3.336-3.336,3.336-8.73,0-12.066     C437.897,391.697,432.504,391.697,429.167,395.034z" fill="#4a7c12" data-original="#000000" style="" class=""/>
			<path d="M307.2,332.8c0-4.71-3.814-8.533-8.533-8.533h-102.4c-4.719,0-8.533,3.823-8.533,8.533c0,4.71,3.814,8.533,8.533,8.533     h102.4C303.386,341.333,307.2,337.51,307.2,332.8z" fill="#4a7c12" data-original="#000000" style="" class=""/>
			<path d="M298.667,494.933H59.733c-12.442,0-25.6-13.158-25.6-25.6V76.8c0-12.442,13.158-25.6,25.6-25.6h51.2     c4.719,0,8.533-3.823,8.533-8.533c0-4.71-3.814-8.533-8.533-8.533h-51.2c-21.931,0-42.667,20.736-42.667,42.667v392.533     c0,21.931,20.736,42.667,42.667,42.667h238.933c4.719,0,8.533-3.823,8.533-8.533S303.386,494.933,298.667,494.933z" fill="#4a7c12" data-original="#000000" style="" class=""/>
			<path d="M145.067,102.4H332.8c4.719,0,8.533-3.823,8.533-8.533v-51.2c0-4.71-3.814-8.533-8.533-8.533h-45.594     C280.081,13.995,260.787,0,238.933,0s-41.148,13.995-48.273,34.133h-45.594c-4.719,0-8.533,3.823-8.533,8.533v51.2     C136.533,98.577,140.348,102.4,145.067,102.4z M153.6,51.2h43.529c4.053,0,7.552-2.859,8.354-6.835     c3.217-15.821,17.28-27.298,33.451-27.298c16.171,0,30.234,11.477,33.451,27.298c0.802,3.977,4.301,6.835,8.354,6.835h43.529     v34.133H153.6V51.2z" fill="#4a7c12" data-original="#000000" style="" class=""/>
			<path d="M401.067,324.267c-51.755,0-93.867,42.112-93.867,93.867S349.312,512,401.067,512c51.755,0,93.867-42.112,93.867-93.867     S452.821,324.267,401.067,324.267z M401.067,494.933c-42.351,0-76.8-34.458-76.8-76.8s34.449-76.8,76.8-76.8     s76.8,34.458,76.8,76.8S443.418,494.933,401.067,494.933z" fill="#4a7c12" data-original="#000000" style="" class=""/>
			<path d="M128,187.733h17.067c4.719,0,8.533-3.823,8.533-8.533s-3.814-8.533-8.533-8.533H128c-4.719,0-8.533,3.823-8.533,8.533     S123.281,187.733,128,187.733z" fill="#4a7c12" data-original="#000000" style="" class=""/>
			<path d="M238.933,34.133c-9.412,0-17.067,7.654-17.067,17.067c0,9.412,7.654,17.067,17.067,17.067     c9.412,0,17.067-7.654,17.067-17.067C256,41.788,248.346,34.133,238.933,34.133z" fill="#4a7c12" data-original="#000000" style="" class=""/>
			<path d="M196.267,238.933h119.467c4.719,0,8.533-3.823,8.533-8.533s-3.814-8.533-8.533-8.533H196.267     c-4.719,0-8.533,3.823-8.533,8.533S191.548,238.933,196.267,238.933z" fill="#4a7c12" data-original="#000000" style="" class=""/>
			<path d="M196.267,187.733H332.8c4.719,0,8.533-3.823,8.533-8.533s-3.814-8.533-8.533-8.533H196.267     c-4.719,0-8.533,3.823-8.533,8.533S191.548,187.733,196.267,187.733z" fill="#4a7c12" data-original="#000000" style="" class=""/>
		</g>
	</g>
</g>
<g xmlns="http://www.w3.org/2000/svg">
</g>
<g xmlns="http://www.w3.org/2000/svg">
</g>
<g xmlns="http://www.w3.org/2000/svg">
</g>
<g xmlns="http://www.w3.org/2000/svg">
</g>
<g xmlns="http://www.w3.org/2000/svg">
</g>
<g xmlns="http://www.w3.org/2000/svg">
</g>
<g xmlns="http://www.w3.org/2000/svg">
</g>
<g xmlns="http://www.w3.org/2000/svg">
</g>
<g xmlns="http://www.w3.org/2000/svg">
</g>
<g xmlns="http://www.w3.org/2000/svg">
</g>
<g xmlns="http://www.w3.org/2000/svg">
</g>
<g xmlns="http://www.w3.org/2000/svg">
</g>
<g xmlns="http://www.w3.org/2000/svg">
</g>
<g xmlns="http://www.w3.org/2000/svg">
</g>
<g xmlns="http://www.w3.org/2000/svg">
</g>
</g></svg>
