<?xml version="1.0" encoding="UTF-8"?>
<svg width="1468px" height="398px" viewBox="0 0 1468 398" version="1.1" xmlns="http://www.w3.org/2000/svg" xmlns:xlink="http://www.w3.org/1999/xlink">
    <!-- Generator: Sketch 47.1 (45422) - http://www.bohemiancoding.com/sketch -->
    <title>calligraphy-background</title>
    <desc>Created with Sketch.</desc>
    <defs>
        <polygon id="path-1" points="7.81589699e-15 328.354547 7.81589699e-15 0.144701936 501.345968 0.144701936 501.345968 328.354547"></polygon>
    </defs>
    <g id="Page-1" stroke="none" stroke-width="1" fill="none" fill-rule="evenodd">
        <g id="calligraphy-background">
            <g id="Group">
                <g id="Page-1">
                    <g id="Group-3" transform="translate(0.000000, 34.351236)">
                        <mask id="mask-2" fill="white">
                            <use xlink:href="#path-1"></use>
                        </mask>
                        <g id="Clip-2"></g>
                        <path d="M330.304399,205.455648 C330.113797,204.826099 330.117462,204.4194 329.921362,204.252263 C325.453217,200.443399 320.294141,198.341188 314.480788,197.780351 C310.709073,197.416364 307.450516,198.586322 304.596988,200.97638 C304.085662,201.403507 303.931714,202.268905 303.462541,203.242013 C312.45931,206.666462 321.24715,207.00445 330.304399,205.455648 M51.3239191,0.144701936 C52.944034,2.18562898 52.6746257,4.15041588 51.9873598,6.00749235 C50.5651775,9.83864111 49.1539915,13.6920748 47.4202487,17.3802287 C44.7793149,23.0015991 41.8139915,28.4651181 39.0850876,34.0456329 C36.8620115,38.5973273 34.7452325,43.202877 32.6522787,47.817712 C29.8848879,53.9219224 27.1193298,60.0279898 24.4728979,66.1860554 C19.0279191,78.853174 15.2763635,92.0941292 12.1131076,105.481793 C10.3702012,112.86553 10.3775321,120.434973 12.5676195,127.848422 C13.3135321,130.377761 14.3123586,132.762247 15.9434697,134.873743 C18.0199291,137.559075 20.6150452,139.328869 23.8900964,140.164554 C29.3167481,141.548076 33.5521388,139.49972 35.6909104,134.28505 C36.2462212,132.92567 36.5522836,131.46415 37.0801039,130.091771 C37.4246532,129.189232 37.9268155,128.340548 38.4326432,127.514149 C38.5682637,127.296871 39.0319391,127.096307 39.259195,127.166875 C39.6733873,127.295014 40.2415271,127.556861 40.3569878,127.898564 C40.6648829,128.812245 40.9471201,129.803924 40.9122986,130.751033 C40.840823,132.712106 40.7070352,134.693606 40.3294971,136.611966 C39.5670901,140.469114 38.6928879,144.305834 37.7398792,148.118412 C36.4569828,153.253229 34.237572,157.990631 31.2429253,162.319476 C30.1396345,163.916562 28.8970577,165.545218 27.370411,166.679891 C25.3452674,168.185981 24.4545708,170.093198 24.1595046,172.457256 C23.628019,176.683962 22.8894372,180.899526 22.6236944,185.142946 C21.8631201,197.319796 25.8236045,207.682283 34.7452325,215.985272 C35.6945758,216.867383 36.7227256,217.693782 37.8131875,218.384615 C48.9597243,225.439648 60.9309803,230.060054 74.1503111,231.033162 C78.1786057,231.328438 82.1922387,232.093553 86.2168679,232.121409 C94.6345009,232.178979 103.050301,231.627427 111.339644,230.08791 C121.677957,228.167693 131.990611,226.078482 142.264778,223.829563 C157.005257,220.600107 171.20692,215.595286 185.234476,210.04077 C197.009632,205.379508 208.335774,199.784137 219.330196,193.48679 C221.987624,191.963988 224.516763,190.207193 226.924943,188.673248 C227.07889,184.141982 225.343315,178.873456 221.657737,172.267835 C218.380853,166.395759 217.798051,165.745782 210.078681,159.455864 C210.194141,156.12984 210.238126,152.549397 210.465382,148.980096 C210.776943,144.075557 211.220458,139.180303 211.629153,134.283192 C211.684134,133.638787 211.827085,132.992524 212.008523,132.370404 C212.22295,131.638716 213.37939,131.19116 214.030001,131.609002 C214.704438,132.043558 215.371545,132.522684 215.939684,133.085378 C221.410321,138.508041 226.175365,144.524969 229.820623,151.334869 C234.404229,159.899705 236.269927,169.194373 235.569832,178.879027 C235.060339,185.909918 233.634491,192.812672 231.48289,199.563145 C229.248818,206.56618 225.220523,212.109553 219.068119,215.968558 C214.80707,218.640891 210.454386,221.177658 206.041222,223.584429 C200.640229,226.527895 195.134771,229.270797 189.284763,232.303403 C188.751445,236.517109 188.324423,241.070661 187.569347,245.566643 C186.389083,252.601249 186.770286,259.64514 187.499704,266.637032 C188.311595,274.440468 191.275085,281.569784 195.992478,287.796562 C199.850331,292.890523 205.126701,296.064266 211.172808,297.891629 C219.878176,300.524964 228.592708,300.773812 237.497842,298.625175 C250.909607,295.38829 263.987819,291.228439 276.554706,285.469645 C286.159934,281.068374 295.217183,275.664281 303.944543,269.697495 C308.368703,266.672317 312.728718,263.545 317.01909,260.328544 C326.413557,253.288367 334.745053,245.020662 343.09121,236.782671 C344.474905,235.415863 345.660668,233.837348 346.875754,232.307117 C347.594176,231.404578 347.476883,230.490896 346.324109,229.517788 C343.252488,230.323759 340.021422,231.328438 336.722546,232.00627 C327.1668,233.972914 317.559739,235.096446 307.829887,233.259797 C302.808264,232.310831 298.222825,230.528038 294.348478,226.98845 C291.689217,224.557537 290.076433,221.701353 289.753877,218.085625 C288.520463,204.311689 291.700214,191.744853 299.764134,180.515111 C302.188808,177.135232 305.344733,174.576181 308.892858,172.55011 C312.349347,170.577895 316.029427,169.770067 320.092543,170.243621 C326.054346,170.941882 331.396693,173.096091 336.161737,176.639393 C343.340458,181.982202 348.723125,188.871955 352.507669,197.044949 C352.976843,198.06077 353.559644,199.024592 354.025153,199.891847 C356.165757,200.246549 357.754716,199.267869 359.316184,198.502754 C368.344109,194.082912 377.390361,189.692783 386.308324,185.051949 C392.777787,181.686926 399.074975,177.974631 405.419814,174.362617 C407.210371,173.343082 409.176868,172.540825 410.980254,170.652178 C409.594726,170.152624 408.62339,169.71064 407.606236,169.448793 C396.631974,166.62975 385.633887,163.909133 374.687115,160.989809 C371.908728,160.248836 369.372259,159.960989 366.718496,161.32594 C364.821642,162.302762 362.710361,162.572038 360.569757,162.455043 C356.052129,162.208051 351.523505,162.066914 347.01504,161.699212 C340.19553,161.140232 333.425502,161.545075 326.69946,162.635179 C324.8191,162.939739 323.048703,163.914705 321.214161,164.544254 C319.504244,165.13109 318.316648,164.100412 318.681357,162.265621 C318.998416,160.662964 319.390616,159.056593 319.945927,157.524504 C321.789632,152.449114 323.715809,147.403438 325.621827,142.35219 C326.576668,139.819137 328.172958,137.98806 330.60313,136.615681 C335.571604,133.811495 340.584064,131.196731 346.16283,129.887492 C353.91519,128.067558 361.608903,128.671107 369.221977,130.674893 C377.830211,132.940526 386.388963,135.393724 394.995365,137.661215 C406.418641,140.669678 417.788768,143.912134 429.415475,146.064486 C441.35924,148.274407 453.372648,149.854779 465.477692,150.924455 C473.253877,151.611573 480.998905,151.035879 488.75493,151.294013 C491.482001,151.383153 494.2274,150.865028 496.9673,150.673749 C497.927639,150.606895 498.96312,150.486185 499.846486,150.770317 C500.460443,150.969025 501.19536,151.761996 501.299824,152.387831 C501.451939,153.299656 501.202691,154.337761 500.920453,155.257014 C499.089577,161.199659 497.203719,167.123733 495.338021,173.055235 C495.288538,173.211229 495.266546,173.374652 495.209732,173.52879 C493.360528,178.494612 493.015979,178.518754 488.688953,178.448185 C485.631994,178.398044 482.556708,178.624607 479.518076,178.372045 C473.653407,177.881777 467.889537,178.827029 462.096344,179.326582 C458.716828,179.618143 455.320818,179.987701 451.998116,180.654392 C442.618311,182.533753 433.4511,185.150374 424.749397,189.278655 C414.638341,194.075484 404.716054,199.206586 394.993532,204.796386 C383.183555,211.587715 371.036359,217.775493 359.033947,224.226977 C358.330186,224.605821 357.63559,225.005092 356.794376,225.471218 C356.616603,227.268868 356.539629,229.055376 356.251894,230.808456 C354.021487,244.398542 348.616828,256.335829 339.238855,266.555321 C328.319575,278.457324 315.46312,287.733421 302.049522,296.363256 C299.591859,297.943628 297.066386,299.421861 294.654541,301.072801 C286.183759,306.874308 277.080693,311.531856 267.935475,316.079836 C261.396369,319.333434 254.477892,321.712349 247.476943,323.740277 C241.108279,325.582497 234.741447,327.450716 228.08688,328.109978 C220.691899,328.84538 213.687285,327.965126 206.794466,324.886093 C201.492438,322.518321 197.020628,319.168155 192.781572,315.337006 C188.964039,311.886558 186.365257,307.633853 184.360274,302.87788 C181.002751,294.909165 179.314825,286.648889 179.437617,277.996769 C179.534751,271.114444 179.490766,264.222833 179.807824,257.349793 C180.10289,250.96145 181.01558,244.628819 182.818965,238.465182 C183.082875,237.566357 183.231325,236.634105 183.409098,235.829991 C182.172019,234.916309 181.363794,235.640569 180.511585,235.958129 C170.950341,239.520002 161.517387,243.509002 151.794865,246.543465 C137.420928,251.032019 122.704274,254.231762 107.897817,256.98952 C98.3127481,258.774171 88.6397094,259.903273 78.952009,259.635854 C61.8235096,259.166014 45.6168629,254.835312 31.3767131,244.810813 C20.5380714,237.181943 14.5561089,226.423899 13.5352899,213.019521 C12.6061064,200.818528 13.9109953,188.823671 17.1347306,177.033093 C17.8678142,174.355189 18.4872699,171.645714 19.2331825,168.65025 C18.4267905,168.219408 17.6607181,167.662285 16.8066757,167.378152 C12.2945458,165.877634 9.09830112,162.865456 6.41521498,158.954453 C1.56220125,151.880849 0.469906617,143.834137 0.0667106117,135.590574 C-0.385968539,126.327477 1.54020874,117.342941 3.33076554,108.334263 C5.25511011,98.6496091 8.39087541,89.3549414 11.9994797,80.2292676 C16.2678592,69.4396533 20.7506657,58.7354646 25.328773,48.0758456 C27.0643486,44.0385614 29.3753948,40.2556966 31.3363935,36.3131233 C35.9951401,26.9534579 40.59524,17.5640792 45.2356594,8.19327136 C46.1776719,6.29162505 47.1655021,4.41412074 48.180823,2.55147304 C48.8241039,1.37037241 49.7441238,0.477118624 51.3239191,0.144701936 Z" id="Combined-Shape" fill="#FFFFFF" mask="url(#mask-2)"></path>
                    </g>
                    <path d="M758.647372,231.889796 C754.542103,226.74198 749.914513,223.365815 745.105484,221.772443 C738.711162,219.651662 731.561764,223.094682 728.864016,229.765301 C738.38494,233.997578 748.164276,233.862011 758.647372,231.889796 M1026.89734,234.76455 C1033.72968,233.089468 1046.65028,228.600914 1049.64492,226.853405 C1049.17758,226.37985 1048.80738,225.846869 1048.30705,225.518167 C1044.38138,222.929402 1040.53086,220.197643 1036.45308,217.880011 C1033.66187,216.292211 1030.60124,215.112967 1027.54795,214.099004 C1025.75739,213.504739 1023.73225,213.324603 1021.84089,213.43417 C1018.38074,213.632877 1015.80212,215.367387 1014.47524,218.632127 C1016.37392,222.258998 1021.10598,228.396635 1026.89734,234.76455 M852.051392,267.930079 C847.968116,267.515951 844.414493,267.402669 840.958003,266.758264 C833.300945,265.330172 827.778992,260.797048 824.208875,253.875724 C822.163572,249.91458 821.199567,245.578307 820.754218,241.147322 C820.39684,237.581735 820.176915,233.999435 819.867187,230.05129 C819.044301,230.201714 818.237909,230.162715 817.633115,230.496989 C815.644625,231.590807 813.689125,232.757051 811.794103,234.012435 C804.342308,238.950401 796.756725,243.648804 788.782608,247.686089 C788.502203,247.829083 788.285944,248.100217 788.06052,248.29521 C788.06052,249.940579 788.093509,251.569235 788.055022,253.194177 C787.765454,265.287459 785.69266,277.061324 780.616056,288.031075 C776.890158,296.077787 771.632116,303.184819 765.155322,309.290886 C755.759022,318.149141 745.501349,325.891293 734.587567,332.660337 C723.96885,339.243673 713.183357,345.59116 702.176106,351.478092 C695.340101,355.136533 688.066078,358.048429 680.790223,360.743047 C671.991387,364.002216 663.155896,367.255814 653.981354,369.339454 C648.461234,370.592981 642.891631,371.61623 637.371512,372.869756 C628.537854,374.875399 619.729854,377.007323 610.901694,379.04825 C595.774513,382.545125 580.641834,386.029 565.503656,389.479448 C563.614133,389.91029 561.675127,390.133139 559.752615,390.394987 C558.913234,390.510126 557.987716,390.346703 557.864925,389.355024 C557.775122,388.625193 557.896081,387.572231 558.357924,387.137675 C559.155152,386.389273 560.243781,385.882291 561.290258,385.496019 C567.061459,383.362238 572.803337,381.120747 578.655177,379.237672 C594.246033,374.217994 609.472181,368.228922 624.478403,361.679014 C642.006433,354.027858 659.517969,346.322848 676.881055,338.29285 C694.990053,329.919292 712.677529,320.676622 729.600765,310.007718 C739.359941,303.855223 748.999991,297.491022 757.738348,289.893723 C764.490048,284.025361 770.880705,277.754014 775.948146,270.236568 C776.939641,268.767621 777.397819,267.30053 777.014783,265.625447 C776.219387,262.130429 775.3012,258.665125 773.981649,255.196106 C772.110453,255.073539 770.717594,255.959364 769.2331,256.457061 C760.423267,259.415384 751.442992,261.252032 742.094343,261.025469 C736.011582,260.87876 730.234882,259.511952 724.681774,257.112609 C720.812925,255.439383 717.741304,252.739194 716.34478,248.65734 C715.454083,246.055575 714.805304,243.245819 714.711836,240.504774 C714.19318,225.14118 719.282613,211.879797 729.925155,200.913761 C731.831172,198.950831 734.100066,197.25532 736.438603,195.838371 C741.287951,192.894904 746.426867,192.302497 751.750887,194.675841 C756.536091,196.811479 760.901604,199.552524 764.607342,203.329817 C769.650957,208.470205 774.00914,214.154716 777.786353,220.305353 C778.633065,221.685161 779.503601,223.053826 780.364975,224.42992 C782.595382,224.77905 784.246653,223.583093 785.952905,222.788264 C795.380361,218.394421 804.37713,213.23732 812.825919,207.112682 C814.931701,205.586165 817.06864,204.093075 819.277055,202.731838 C824.690877,199.394672 826.380635,200.956473 826.585899,206.47199 C826.743512,210.724696 827.108221,214.977401 827.590223,219.205964 C828.786982,229.691018 835.831916,237.167607 846.078593,239.271675 C850.605384,240.20207 855.024046,240.294924 859.53251,239.17325 C862.770907,238.367279 865.558458,236.907617 868.010623,234.653126 C872.537414,230.491418 875.819796,225.50331 877.940241,219.705517 C879.006877,216.784336 879.976381,213.814871 881.270273,210.997686 C882.212286,208.941902 883.511676,207.023542 884.858718,205.199893 C885.377374,204.499775 886.418353,204.085647 887.303552,203.799657 C888.467322,203.422671 889.691572,204.549916 889.414832,205.732874 C888.890678,207.961366 888.410508,210.230713 887.57296,212.345923 C886.143447,215.952366 886.990158,219.10011 889.017135,222.090004 C893.322168,228.439348 899.164845,231.18225 906.867721,230.71241 C913.148415,230.329852 918.48893,228.181214 923.294293,224.272068 C923.801954,223.859797 924.395751,223.558951 924.784286,223.31196 C924.370093,219.896796 922.946078,217.538309 921.250822,215.372958 C920.28865,214.141716 919.813979,212.90676 919.813979,211.348673 C919.817644,203.775515 920.796311,196.308211 922.158013,188.885476 C922.267976,188.276355 922.702328,187.728518 923.15684,186.807408 C924.120845,187.672805 925.06469,188.274498 925.689644,189.119468 C929.191951,193.85687 930.753419,199.32596 931.246418,205.140467 C932.149944,215.827942 931.603796,226.439277 929.327572,236.929902 C928.911547,238.848262 928.317749,240.72948 927.729449,242.60327 C926.622493,246.129858 924.758628,249.130894 921.692505,251.275817 C920.361959,252.206213 919.130378,253.287031 917.770508,254.171 C910.806213,258.700409 903.213299,259.396813 895.40046,257.363314 C892.972121,256.731908 890.541949,255.335387 888.617604,253.684446 C885.92902,251.377957 883.625304,248.579342 881.343582,245.830869 C880.553684,244.881903 880.238458,243.483525 879.855422,242.242997 C879.38075,240.699767 879.060026,239.106395 878.686153,237.592878 C877.45274,237.293889 877.219986,238.188999 876.877269,238.883546 C875.363452,241.964436 873.847801,245.045326 872.376136,248.146644 C870.614902,251.860796 868.42848,255.259246 865.794877,258.425562 C864.147272,260.407062 862.877204,262.754407 861.678613,265.066467 C857.84092,272.463203 853.988565,279.858081 850.379961,287.369956 C846.254533,295.95522 843.571447,305.071609 841.606783,314.384847 C840.618952,319.06468 840.661105,323.850366 841.254902,328.589625 C841.784555,332.825616 843.980141,336.28535 846.804346,339.304956 C851.818638,344.668193 857.97654,348.176211 864.929839,350.267279 C870.57275,351.964647 876.188171,351.093678 881.689964,349.634016 C884.638793,348.852186 887.571127,347.723084 890.254213,346.265279 C896.258168,343.000538 901.761794,338.996682 906.644131,334.11257 C916.683711,324.069501 925.790443,313.205604 934.559956,302.033431 C940.904795,293.947721 947.322942,285.923293 954.344051,278.420704 C955.786393,276.881188 957.465155,275.568235 958.995467,274.108573 C964.658538,268.708194 970.598348,263.632804 976.932191,259.073681 C980.08445,256.804334 983.507951,254.885974 986.93695,253.05304 C994.947721,248.772478 1003.00431,244.575485 1011.4531,241.214177 C1011.89662,241.037755 1012.31264,240.787049 1012.86245,240.510345 C1012.90827,238.712695 1011.6602,237.52788 1010.7585,236.281782 C1006.9483,231.026256 1005.48946,225.256319 1005.99896,218.724981 C1006.39299,213.636591 1006.94647,208.633627 1008.35216,203.725374 C1009.35098,200.230356 1010.85014,196.98233 1012.62237,193.84387 C1016.22914,187.457384 1023.89353,183.561238 1031.75768,185.962438 C1035.80797,187.199251 1039.70981,188.772195 1043.38806,190.844692 C1051.1899,195.244106 1058.51524,200.375208 1065.07817,206.51656 C1067.55049,208.830478 1069.61779,211.616092 1071.70158,214.318139 C1073.37301,216.485347 1073.82935,219.048112 1073.25572,221.770586 C1071.97099,227.85994 1070.73024,233.958579 1069.40703,240.040505 C1068.47601,244.321066 1066.01102,247.045397 1061.93874,248.941472 C1056.02092,251.69366 1049.8227,253.500595 1043.71794,255.641804 C1041.58834,256.390206 1039.45323,257.127465 1037.13119,257.937151 C1037.13119,259.014255 1037.13852,259.953936 1037.13119,260.893616 C1037.10186,264.000505 1037.12569,267.111108 1037.00106,270.214283 C1036.96624,271.09268 1036.29364,271.644232 1034.99242,271.293245 C1034.18236,267.619947 1032.34598,264.238211 1030.28052,260.98647 C1028.23522,260.759907 1026.53813,261.40617 1024.94001,262.091431 C1015.56387,266.11943 1006.1584,270.091716 996.901389,274.387134 C991.764306,276.77162 986.847147,279.663088 981.91716,282.48213 C976.105639,285.806297 971.18115,290.339421 966.117374,294.690551 C953.543157,305.493165 943.60071,318.618981 933.749899,331.852508 C925.26079,343.258672 916.221869,354.211709 905.802917,363.864793 C899.943746,369.294884 893.311172,373.69987 885.826388,376.667478 C882.401055,378.026858 878.830937,378.134568 875.306638,378.054714 C867.365509,377.876435 859.921045,376.034215 853.928086,370.232708 C853.231656,369.558589 852.394108,369.033036 851.646363,368.407202 C847.075587,364.596481 843.567781,359.976074 841.089959,354.512555 C836.992021,345.474164 834.494038,336.086643 834.211801,326.082572 C833.958887,317.103607 835.480036,308.421775 838.289579,299.999933 C840.92868,292.085073 844.014962,284.326207 848.079911,277.001898 C849.645045,274.179141 850.894952,271.172535 852.051392,267.930079 Z" id="Combined-Shape" fill="#FFFFFF"></path>
                    <path d="M1027.68192,382.557753 C1030.24222,380.046985 1032.92897,377.985631 1035.76234,376.122983 C1042.27578,371.840565 1048.90103,367.72714 1055.33017,363.318441 C1065.91773,356.059129 1076.36967,348.599253 1086.90958,341.265658 C1101.10575,331.391582 1114.00435,319.998418 1125.85099,307.353584 C1127.71119,305.368369 1128.6532,303.206732 1128.94277,300.404404 C1130.03873,289.778212 1130.1212,279.131593 1129.74549,268.486831 C1129.60987,264.594398 1128.6587,260.716823 1127.93294,256.861532 C1126.28351,248.092417 1122.99929,239.936137 1119.02414,231.991564 C1111.70064,217.361515 1101.96895,204.545831 1090.75827,192.833249 C1085.24182,187.068884 1079.5091,181.512511 1073.8387,175.900426 C1060.98041,163.172024 1047.16729,151.526298 1033.70054,139.485014 C1019.87092,127.118741 1006.25572,114.475765 994.18,100.283986 C986.031775,90.7070431 978.636794,80.5339782 972.149003,69.7276502 C968.424938,63.5231577 966.22752,56.607405 964.554257,49.6062267 C962.184564,39.6894383 961.020794,29.6017989 961.97197,19.3637364 C962.092928,18.0582116 962.239545,16.756401 962.389827,15.4545904 C962.512619,14.4071993 962.855335,13.5120884 964.108908,13.5213738 C965.353318,13.5306592 965.664878,14.5074814 965.912294,15.4768753 C966.759006,18.8066134 967.734007,22.1122095 968.395615,25.4809462 C970.208164,34.6976168 974.623161,42.2837742 981.82754,48.2041339 C983.713398,49.7529357 985.593757,51.3091658 987.453957,52.8876808 C989.066741,54.2563462 990.701518,55.6027266 992.233662,57.0568175 C996.553358,61.1609565 999.093493,66.2307752 999.324414,72.2217039 C999.439875,75.2301678 1000.38739,77.6090828 1002.42353,79.6518669 C1008.05361,85.3048077 1013.66536,90.9763192 1019.33027,96.5939755 C1032.41214,109.567512 1046.71644,121.148241 1060.33347,133.507085 C1073.8277,145.752647 1087.23397,158.122633 1099.42149,171.761003 C1111.68781,185.490369 1121.77871,200.657113 1128.88595,217.74593 C1135.27844,233.113238 1137.60965,249.206663 1136.79409,265.840497 C1136.40922,273.705216 1136.00236,281.551364 1134.70847,289.326943 C1134.55269,290.264766 1134.68648,291.250874 1134.68648,293.005811 C1135.45438,291.765284 1135.99137,291.187733 1136.20396,290.508043 C1139.07948,281.289516 1141.98799,272.078417 1143.87201,262.57947 C1145.25021,255.628433 1145.7597,248.60497 1145.21172,241.551794 C1144.63076,234.036205 1143.7309,226.548473 1143.01797,219.04217 C1141.54447,203.524439 1138.5425,188.238842 1136.16364,172.858535 C1134.93572,164.923247 1133.81594,156.971246 1132.61552,149.030387 C1131.61119,142.385767 1130.59587,135.744862 1129.52557,129.111385 C1128.06673,120.05628 1126.52542,111.012317 1125.06475,101.957212 C1123.52345,92.4136964 1122.03529,82.860895 1120.52513,73.3136649 C1118.98932,63.6048691 1117.49017,53.8905021 1115.89021,44.1928488 C1115.43203,41.4072341 1115.31108,38.7014736 1115.9342,35.917716 C1117.47184,29.0465331 1118.88119,22.1437798 1120.37668,15.2595974 C1120.65342,13.9856429 1121.05295,12.7358304 1121.47448,11.5008746 C1121.75122,10.685618 1122.93698,10.4961962 1123.45747,11.1796004 C1123.9413,11.8147205 1124.43797,12.4906963 1124.71287,13.2316699 C1126.65188,18.4481977 1128.40395,23.7278661 1129.49441,29.2080987 C1131.82928,40.9281083 1134.35659,52.6146906 1136.43305,64.3829841 C1137.97252,73.0889586 1138.89071,81.9063577 1140.14978,90.6661874 C1141.33921,98.9338919 1142.58912,107.194168 1143.85735,115.452587 C1145.60026,126.786325 1147.36149,138.118205 1149.16305,149.442658 C1150.19303,155.910855 1151.40445,162.351196 1152.39228,168.826822 C1155.26413,187.614865 1158.07734,206.41405 1160.88505,225.213235 C1161.63646,230.232912 1162.24859,235.274875 1162.99267,240.29641 C1164.41485,249.88821 1166.54996,259.303588 1170.12741,268.328979 C1174.70368,279.876281 1182.56783,288.123557 1194.14323,292.558256 C1198.4281,294.199911 1202.95489,294.987312 1207.45969,294.907458 C1210.9565,294.844317 1214.49363,293.900922 1217.91163,292.96867 C1228.62198,290.05306 1237.29253,284.121557 1243.49075,274.665324 C1245.63869,271.387584 1247.86909,268.163699 1250.10133,264.943529 C1251.87173,262.391906 1253.95552,260.193127 1257.18475,258.826319 C1257.56046,259.719573 1258.11394,260.421548 1258.09561,261.110523 C1258.04979,262.902602 1257.8262,264.700252 1257.53847,266.47376 C1257.2489,268.249125 1256.78522,269.996634 1256.41502,271.758999 C1255.62145,275.543721 1256.53231,278.788034 1259.01013,281.798355 C1264.87847,288.9351 1277.34272,292.979812 1287.32732,287.863567 C1291.57371,285.687073 1295.33076,282.999883 1298.19162,279.036882 C1304.06729,270.897316 1308.65822,262.126344 1311.55024,252.452832 C1311.8673,251.390585 1312.42994,250.35805 1313.07688,249.457368 C1313.66702,248.63654 1314.5962,248.259554 1315.65734,248.671825 C1316.65616,249.058097 1317.35809,249.748929 1317.25363,250.868746 C1317.10518,252.48626 1316.91091,254.116773 1316.53337,255.691574 C1315.92491,258.237626 1315.14784,260.742822 1314.44775,263.266589 C1313.73299,265.840497 1314.3103,268.02999 1316.04037,270.098773 C1321.44687,276.561399 1328.22606,278.344193 1336.14886,276.394262 C1339.32678,275.612433 1342.18947,274.165771 1344.73693,271.961421 C1344.79925,269.502652 1343.3569,267.827569 1341.93472,266.382763 C1339.90958,264.325122 1339.30478,262.085488 1339.60718,259.264589 C1340.32927,252.567971 1341.55902,245.977207 1343.15347,239.445869 C1343.33858,238.688182 1343.69046,237.973207 1344.09915,236.881246 C1345.1218,237.442083 1346.08031,237.709502 1346.66311,238.335337 C1348.78356,240.615827 1350.54662,243.169307 1351.63892,246.135058 C1353.98478,252.508545 1355.28601,259.04174 1354.48511,265.877638 C1353.75936,272.059846 1353.10325,278.251339 1352.22722,284.411261 C1350.73539,294.905601 1344.057,300.79439 1334.63687,303.934706 C1324.55148,307.296015 1314.82162,302.78889 1309.49394,295.737571 C1307.95629,293.702215 1306.9648,291.245303 1305.64158,288.834818 C1304.78754,288.600826 1304.41917,289.471795 1304.06729,290.1292 C1302.91268,292.290837 1301.84971,294.500758 1300.74825,296.692108 C1296.58067,304.991383 1290.37695,311.134592 1282.27088,315.593432 C1274.7586,319.727285 1260.96747,317.58979 1256.20242,312.482829 C1255.31722,311.53572 1254.17361,310.833745 1253.30124,309.875494 C1249.38108,305.578219 1247.12501,300.690394 1248.19715,294.647467 C1248.4244,293.371655 1248.45923,292.060559 1248.57469,290.844174 C1247.43474,290.132914 1246.94174,290.972313 1246.4689,291.52015 C1245.62036,292.504401 1244.87994,293.585219 1244.11021,294.638182 C1241.50959,298.194483 1238.93647,301.773069 1236.31386,305.314514 C1231.38937,311.959134 1224.79162,316.252695 1217.17671,319.021596 C1214.29386,320.070844 1211.35969,321.129377 1208.35955,321.669787 C1199.10254,323.335584 1190.36968,321.53422 1182.16097,316.963955 C1172.43662,311.54872 1165.58962,303.583719 1161.26076,293.230518 C1157.76212,284.864388 1155.57569,276.160271 1154.05821,267.255589 C1153.72832,265.322372 1153.30314,263.452296 1152.38678,260.831961 C1151.95976,262.882174 1151.54007,264.122701 1151.4631,265.38737 C1150.77583,276.761963 1147.80867,287.657431 1144.87817,298.577041 C1142.09795,308.933956 1137.7581,318.639038 1132.71265,327.98199 C1125.29384,341.720641 1114.57799,352.149983 1100.68789,359.195731 C1095.7524,361.700927 1090.74178,363.881135 1085.37194,365.264657 C1082.24717,366.070628 1079.21587,367.264728 1076.15708,368.325119 C1066.36858,371.723569 1056.59841,375.177731 1046.79525,378.537182 C1041.59035,380.321833 1036.33781,381.965345 1031.09626,383.640428 C1030.03329,383.980273 1028.90251,384.329404 1027.68192,382.557753" id="Fill-6" fill="#FFFFFF"></path>
                    <path d="M551.242797,179.734175 C550.973389,179.253192 550.819441,178.755496 550.495052,178.437935 C547.460085,175.461042 544.027421,173.005987 540.189728,171.264049 C536.603117,169.63725 532.774587,168.994702 528.894742,170.177659 C525.036889,171.353189 522.185194,173.745103 520.513763,177.778673 C524.122368,180.413865 527.883087,182.215229 532.20828,181.986809 C538.14809,181.672963 544.073239,181.034128 550.00022,180.486291 C550.41258,180.447292 550.788285,180.020165 551.242797,179.734175 M613.683197,91.3874759 C614.040575,97.7182496 615.129204,103.519757 616.259986,109.293407 C618.369434,120.060737 620.852755,130.753783 622.885229,141.535969 C625.223766,153.926383 627.298393,166.368795 629.384015,178.805637 C630.927157,188.014879 632.376829,197.240835 633.7367,206.47979 C635.620725,219.289904 637.105219,232.148301 637.99225,245.073553 C638.613539,254.128658 637.863961,263.076053 636.181534,271.973306 C634.995771,278.252082 633.901643,284.540143 631.735381,290.586784 C630.51663,293.994519 629.140265,297.272259 627.127951,300.291865 C624.595147,304.089587 622.221788,307.995018 619.753129,311.83731 C616.806133,316.420574 612.843816,320.077158 608.866837,323.668744 C599.193798,332.406289 589.007601,340.52357 578.333903,347.951876 C566.307666,356.319862 553.590497,363.475178 539.999127,368.966553 C531.57233,372.370574 523.004415,375.31404 514.11211,377.159974 C505.866752,378.872199 497.570078,380.279863 489.0883,379.79888 C482.224804,379.410751 475.724185,377.72824 469.49664,374.714205 C463.291087,371.711312 457.807621,367.869021 453.031581,362.795488 C447.166912,356.566853 443.463007,349.2574 441.148295,341.102978 C440.662627,339.394467 440.208115,337.674814 439.711451,335.860451 C438.861074,335.767597 438.219626,335.552176 437.631326,335.652458 C431.099551,336.774132 424.545783,337.797382 418.052495,339.127048 C402.994957,342.213509 388.027221,345.689957 373.407701,350.551783 C367.878417,352.390288 362.338138,354.195367 356.79236,355.985588 C356.198562,356.176867 355.522293,356.284578 354.915666,356.202866 C354.536295,356.152725 354.028635,355.729312 353.918672,355.369039 C353.806877,354.997624 353.979152,354.373646 354.255891,354.082085 C354.68841,353.627101 355.282208,353.296542 355.857678,353.021694 C360.54025,350.79506 365.18067,348.47 369.932884,346.404931 C386.724165,339.110335 403.781189,332.432288 420.13262,324.114442 C424.179241,322.056801 428.326662,320.203439 432.419102,318.240509 C433.58837,317.679672 434.741144,317.079836 435.884755,316.467001 C436.958722,315.891308 437.589174,314.983197 437.689973,313.737099 C437.72846,313.248688 437.754118,312.754705 437.755951,312.264437 C437.76878,300.395861 439.544675,288.742707 442.04449,277.191691 C443.255911,271.592605 444.46,265.974949 446.045294,260.478003 C447.766208,254.511216 449.923306,248.674425 451.920959,242.793063 C452.001599,242.559072 452.412125,242.442076 452.679701,242.263797 C454.048735,242.523787 453.817813,243.660318 453.817813,244.570286 C453.806817,249.511966 452.974767,254.345936 451.959446,259.166907 C449.664894,270.060517 446.86818,280.853846 445.288385,291.894165 C444.449004,297.755099 444.516814,303.656888 444.952999,309.553106 C444.974992,309.82981 445.229738,310.089801 445.537633,310.658066 C446.501638,310.277365 447.553613,309.969091 448.510288,309.469537 C458.144839,304.446145 467.896685,299.630746 477.353464,294.280509 C488.928854,287.7306 500.518907,281.180691 511.560979,273.694816 C529.627826,261.451111 546.66469,247.913023 562.303197,232.601428 C566.260015,228.727566 569.941928,224.599285 572.813783,219.663176 C572.390427,218.378079 572.091696,217.100411 571.565708,215.930452 C568.73234,209.627535 567.30466,208.496575 560.510807,208.348009 C555.998677,208.249584 551.471886,208.697139 546.954258,208.92556 C541.465294,209.202264 535.958003,209.937667 530.492864,209.69439 C522.597554,209.341545 516.254547,205.458398 511.887201,198.800779 C509.814407,195.641892 509.237104,191.742031 509.052,187.97588 C508.892555,184.722282 508.942038,181.377688 509.50468,178.183516 C510.934193,170.068092 513.567796,162.320369 517.711551,155.181767 C520.117898,151.036772 523.361793,147.558468 527.126178,144.679999 C529.895401,142.562932 533.227266,141.491399 536.703916,141.805245 C541.765858,142.260229 546.508909,143.74589 550.559197,147.116484 C555.839231,151.510327 560.769219,156.238443 564.570258,162.023237 C570.326797,170.790495 575.320929,179.957024 577.994852,190.237799 C578.361394,191.643606 578.533668,193.105125 578.771921,194.54436 C578.96069,195.675319 578.909374,196.897276 579.321733,197.92981 C581.253409,202.765637 581.0848,207.906025 581.447676,212.940559 C581.658437,215.84317 581.445843,218.868347 580.870373,221.724531 C578.511676,233.429684 574.538363,244.444004 566.336989,253.402541 C564.031441,255.922594 561.58844,258.334936 559.040974,260.604284 C554.671796,264.498573 550.121179,268.186727 545.733673,272.062446 C533.998837,282.42679 521.382467,291.574748 508.469199,300.356863 C500.667356,305.66253 492.693239,310.637638 484.484535,315.252473 C481.372595,316.999982 478.405439,319.009339 475.295331,320.760562 C468.230238,324.73842 461.199966,328.814703 453.247841,330.809203 C453.489758,332.998696 454.805643,334.239223 456.101369,335.446323 C461.251281,340.241294 466.921683,344.28415 473.121738,347.584175 C477.98025,350.167368 483.280445,350.793203 488.586138,351.350326 C499.049074,352.447858 509.229773,350.666921 519.304175,348.007588 C534.229758,344.066872 548.530388,338.402788 562.35268,331.539034 C567.273504,329.095121 571.840615,325.926949 576.585499,323.115335 C587.526772,316.628567 597.406907,308.665423 606.9205,300.260295 C612.515761,295.316757 618.356605,290.564499 622.958537,284.569856 C629.20441,276.432147 628.700415,277.795241 627.740075,268.099445 C626.108964,251.610463 623.411216,235.28676 620.916899,218.927774 C618.301623,201.760959 615.85679,184.562574 612.957444,167.444043 C610.826003,154.851207 608.007296,142.379082 605.632105,129.827102 C603.407197,118.077379 601.382053,106.288658 599.230452,94.5240781 C598.46438,90.3382277 597.685479,86.1486632 596.728804,82.0036685 C594.179506,70.9577777 592.782982,59.74475 591.901449,48.4630104 C591.58439,44.4145837 592.088385,40.3772994 592.54473,36.3325869 C593.558218,27.3443368 595.396425,18.5455085 597.894407,9.88224673 C598.433224,8.0140278 599.305594,6.23680562 600.122982,4.46329759 C600.269599,4.14573751 600.918378,3.85974774 601.29225,3.90803172 C601.680785,3.95817279 602.162787,4.36115838 602.338727,4.73814491 C602.675946,5.4568335 602.972844,6.25723346 603.02416,7.04091973 C603.15245,9.00013541 603.322892,10.9872072 603.143286,12.9297092 C602.199441,23.1157737 604.002827,32.837569 607.635256,42.3012307 C610.453963,49.644111 613.582398,56.830997 617.451246,63.6761808 C619.14467,66.6716452 620.530198,69.7692487 620.975546,73.2865516 C621.908395,80.6424315 620.541194,86.9992042 613.683197,91.3874759 Z" id="Combined-Shape" fill="#FFFFFF"></path>
                    <path d="M1374.57325,11.0128349 C1375.85982,11.1001175 1376.27218,11.8336627 1376.34365,12.6414909 C1376.44445,13.7743076 1376.36564,14.9294092 1376.3015,16.0715112 C1375.8983,23.1636862 1376.72119,30.151865 1378.01142,37.0991881 C1379.20818,43.5432434 1382.67016,48.9176227 1386.01302,54.3440002 C1387.98319,57.5400288 1390.07614,60.6654885 1391.93268,63.9283718 C1396.55477,72.0475102 1396.80402,80.3894977 1392.88019,88.8670517 C1392.67492,89.3127501 1392.47516,89.771448 1392.19659,90.1707194 C1390.8697,92.0649374 1390.86421,94.1300065 1391.30955,96.2916435 C1393.3182,106.078436 1395.27004,115.874515 1397.31534,125.652022 C1399.29467,135.108256 1401.50491,144.516205 1403.35045,153.998438 C1405.54054,165.24675 1407.55835,176.530347 1409.44604,187.834371 C1410.73994,195.585808 1411.90371,203.37253 1412.73576,211.187108 C1413.82805,221.466026 1414.39436,231.780229 1412.68994,242.083289 C1412.23543,244.824334 1412.05399,247.61552 1411.79558,250.388135 C1411.18345,256.964043 1409.35258,263.246532 1407.44839,269.523451 C1406.64383,272.17907 1406.03537,274.903401 1405.4544,277.622161 C1403.87827,285.007754 1401.95759,292.291208 1398.85482,299.182819 C1394.38301,309.112607 1388.40471,318.000575 1380.87228,325.84858 C1375.65455,331.282386 1369.96399,336.129355 1363.89039,340.500913 C1358.73681,344.209495 1353.18187,347.201245 1347.17975,349.353597 C1340.62598,351.700942 1334.19134,354.388131 1327.63574,356.731762 C1321.99833,358.74669 1316.24179,360.41063 1310.58422,362.367989 C1304.00296,364.642908 1297.48035,367.088677 1290.91741,369.419308 C1289.40176,369.95786 1287.84763,370.425844 1286.27516,370.752689 C1285.11322,370.994109 1284.12539,369.588302 1284.53042,368.487056 C1285.18837,366.69312 1286.49142,365.525019 1288.08221,364.611337 C1291.03837,362.912112 1293.97071,361.172032 1296.94153,359.500663 C1313.95274,349.933005 1329.74519,338.469272 1345.76307,327.350955 C1358.46374,318.533556 1370.38368,308.702193 1382.21565,298.753834 C1383.08802,298.020289 1383.88891,297.197604 1384.77961,296.491915 C1387.38939,294.421275 1388.28558,291.828796 1388.3424,288.396919 C1388.54216,276.329636 1387.20062,264.544629 1383.57552,253.015898 C1380.87777,244.438062 1376.26668,236.976329 1370.80704,230.025291 C1368.0928,226.569272 1365.02301,223.393671 1362.0247,220.175358 C1354.4666,212.065505 1346.85353,204.005793 1338.39741,196.835621 C1327.59725,187.67652 1316.66881,178.690126 1305.39215,170.12529 C1295.1638,162.355282 1285.0784,154.369853 1275.25875,146.081721 C1265.43909,137.791731 1255.96215,129.078329 1246.45956,120.411353 C1240.5674,115.03883 1234.82369,109.491743 1229.16795,103.864801 C1224.8959,99.6158104 1220.7943,95.186683 1216.74951,90.7129858 C1210.37901,83.6709518 1205.01284,75.8192325 1200.39808,67.5496709 C1196.09671,59.8446607 1192.97561,51.5732421 1191.42147,42.731701 C1190.22838,35.9403723 1189.13058,29.1620432 1188.97664,22.2574329 C1188.93632,20.4560687 1188.94914,18.641705 1189.13242,16.8533404 C1189.22772,15.9266592 1189.61992,14.9609795 1190.12574,14.1754361 C1190.40065,13.7464514 1191.25836,13.3824645 1191.73303,13.4976032 C1192.19854,13.6108849 1192.83632,14.3648579 1192.83999,14.8421266 C1192.87664,18.3594294 1193.91945,21.6705967 1195.02824,24.8981957 C1198.10353,33.8511613 1202.46721,42.0111553 1210.24889,47.7662353 C1211.81036,48.9194798 1213.47446,49.9705851 1215.20637,50.8359827 C1219.23466,52.8490536 1222.30079,55.9392289 1225.04435,59.4342468 C1227.11531,62.0731524 1228.45685,65.0704739 1228.51367,68.4447818 C1228.56682,71.6185255 1229.96701,73.9732985 1231.87302,76.3392139 C1239.27167,85.5168858 1247.57018,93.7697336 1256.3122,101.612168 C1265.16785,109.556741 1274.6228,116.72877 1283.94945,124.067936 C1293.4099,131.509242 1302.96748,138.824266 1312.37294,146.33614 C1318.72328,151.409673 1324.89034,156.724626 1331.12888,161.941154 C1336.74614,166.6377 1342.50634,171.176395 1347.93116,176.092076 C1360.7473,187.702519 1372.73138,200.083647 1382.27247,214.722981 C1387.51218,222.765979 1390.92835,231.559236 1393.54729,240.723909 C1394.12643,242.755551 1394.43066,244.909759 1394.54612,247.026826 C1394.98963,255.045683 1395.60542,263.075681 1394.88883,271.103823 C1394.56994,274.68798 1393.87351,278.236854 1393.35302,281.804297 C1393.19175,282.912972 1393.04146,284.025361 1392.78488,285.873152 C1393.76538,285.091323 1394.28404,284.827618 1394.59377,284.407919 C1399.27634,278.049289 1401.42061,270.869831 1402.14086,262.971685 C1403.33213,249.944294 1402.08222,237.084039 1400.33381,224.247926 C1397.59025,204.093075 1393.18625,184.257642 1388.82623,164.412923 C1386.15414,152.254643 1384.01537,139.975653 1381.36527,127.811802 C1376.97044,107.638381 1374.04543,87.1919688 1370.16376,66.9238362 C1368.35121,57.4564603 1366.94918,47.8646604 1367.61812,38.0890098 C1368.02498,32.1463651 1369.24557,26.4135701 1370.81987,20.7309161 C1371.6006,17.9081598 1372.63791,15.1559725 1373.62208,12.3944998 C1373.81818,11.8448051 1374.30018,11.3991068 1374.57325,11.0128349" id="Fill-10" fill="#FFFFFF"></path>
                    <path d="M1467.05047,255.869853 C1467.61128,263.391013 1465.21593,272.421976 1462.40089,281.3378 C1460.28228,288.043703 1457.91075,294.67718 1455.41644,301.251231 C1453.56173,306.137199 1451.53293,310.980454 1449.18522,315.638002 C1447.73189,318.518328 1445.62977,321.090379 1443.62662,323.643859 C1442.86604,324.611396 1441.62347,325.266944 1440.49269,325.848209 C1433.1252,329.634788 1425.52312,332.851244 1417.60948,335.291443 C1416.37973,335.672143 1415.19214,336.20141 1413.99538,336.691678 C1413.39975,336.934955 1412.8481,337.415938 1412.24514,337.477222 C1411.68067,337.536648 1410.87611,337.356512 1410.54255,336.962811 C1410.22916,336.593253 1410.13386,335.618288 1410.3996,335.239444 C1411.32879,333.915349 1412.33678,332.600539 1413.52987,331.525291 C1416.67297,328.695107 1419.8967,325.952205 1423.14976,323.253873 C1425.90249,320.969669 1428.83849,318.906457 1431.52524,316.549827 C1438.0057,310.870887 1444.49716,305.204947 1449.81018,298.300336 C1453.11272,294.008633 1455.02057,289.280516 1455.13237,283.84671 C1455.18735,281.228232 1455.27348,278.589327 1455.04989,275.987563 C1453.6497,259.660146 1452.11389,243.355015 1449.67456,227.137166 C1447.67691,213.855355 1446.18691,200.49369 1444.41285,187.174737 C1443.3957,179.540296 1442.21543,171.92814 1441.19461,164.293698 C1438.91472,147.24945 1436.14733,130.273914 1434.69033,113.112671 C1433.91509,103.977712 1432.30231,94.9188925 1431.33097,85.7969329 C1429.85931,71.9487137 1428.24286,58.0986374 1429.03459,44.1167086 C1429.45245,36.7292584 1430.66936,29.4755177 1432.53323,22.3313446 C1433.4056,18.9867498 1434.64268,15.7832929 1436.77778,13.0348197 C1437.10584,12.6114063 1437.95988,12.1694221 1438.32826,12.3254165 C1438.78094,12.5166954 1439.22812,13.3208095 1439.24095,13.8705042 C1439.31609,16.9829643 1439.4847,20.1195665 1439.19879,23.2078846 C1438.72779,28.3092737 1438.94221,33.3698071 1439.66064,38.4024843 C1439.95753,40.4731246 1440.59898,42.5790493 1441.51167,44.4546965 C1443.50932,48.5662639 1445.77089,52.5459787 1447.94631,56.5665493 C1449.88899,60.154421 1451.86831,63.7200078 1453.81282,67.3060225 C1457.47823,74.0639238 1457.50572,81.1096719 1455.2405,88.2575593 C1454.05107,92.0144249 1452.5794,95.754577 1449.78819,98.5699049 C1447.79237,100.582976 1447.4973,102.755755 1447.81253,105.285093 C1448.36051,109.673365 1448.85167,114.070922 1449.48029,118.449909 C1450.57442,126.065779 1451.78767,133.664936 1452.89096,141.280807 C1454.39378,151.648865 1455.83246,162.028065 1457.31512,172.39798 C1459.67932,188.940817 1462.21029,205.461369 1464.37289,222.032063 C1465.75108,232.585828 1466.80122,243.193449 1467.05047,255.869853" id="Fill-12" fill="#FFFFFF"></path>
                    <path d="M668.284366,72.3617275 C669.099922,76.8967082 669.805515,80.9209929 670.551427,84.9359923 C674.587053,106.684215 678.716146,128.413867 682.643642,150.182517 C685.002339,163.243336 687.278563,176.32644 689.179083,189.461541 C691.266538,203.891026 693.676551,218.288939 694.616731,232.874418 C694.902633,237.290546 695.410294,241.691817 695.806159,246.100517 C696.702354,256.08416 696.872796,266.077088 695.688865,276.042161 C694.741355,284.010876 693.729699,291.981448 692.400985,299.892594 C691.590928,304.724707 690.194403,309.463966 688.929834,314.208796 C688.229739,316.840274 686.743412,318.283222 685.599802,317.685243 C683.886219,316.788275 683.899048,315.011053 683.998014,313.395397 C684.285749,308.65428 684.659622,303.918735 685.044491,299.185048 C685.854548,289.188405 685.696935,279.199191 684.687113,269.230404 C683.845899,260.914416 683.116481,252.577999 681.92522,244.312152 C679.727802,229.065554 677.303128,213.852384 674.830803,198.650356 C672.860641,186.521789 670.754858,174.415508 668.568436,162.324083 C666.119937,148.780424 663.511992,135.266479 660.977355,121.737677 C658.745115,109.822674 656.459727,97.9169568 654.328286,85.9833834 C653.639188,82.1206643 653.358783,78.1818052 652.906104,74.2763733 C652.530399,71.0190612 652.402109,67.7134651 651.766159,64.5100082 C650.514418,58.1940911 650.446608,51.7816061 650.246843,45.4155479 C650.078234,40.0411686 650.805819,34.6259336 651.285989,29.2422689 C651.648865,25.164129 651.964091,21.0451334 652.812636,17.0561331 C653.868276,12.1088814 655.426079,7.26934014 656.835432,2.40379978 C657.053525,1.65354089 657.588676,0.977565054 658.057849,0.329445366 C658.501365,-0.281532793 659.863068,0.0118852894 660.070164,0.765858336 C660.286423,1.54397338 660.451367,2.34994457 660.52101,3.15591575 C660.748266,5.76696527 660.847232,8.3928714 661.133135,10.9983497 C661.615138,15.3903355 662.161285,19.7767502 662.756915,24.1538794 C663.631118,30.5756498 665.986149,36.4551539 669.043108,42.1210943 C671.132396,45.9949558 672.990763,50.0062409 674.750164,54.0472393 C675.875447,56.6285756 676.108201,59.4476177 675.705005,62.2592315 C675.059892,66.7589278 672.965105,70.285516 668.284366,72.3617275" id="Fill-14" fill="#FFFFFF"></path>
                    <path d="M253.765518,318.936356 C253.527265,318.111814 253.072754,317.367126 253.155225,316.69115 C253.518102,313.769969 254.082576,310.876644 254.49127,307.959177 C255.466272,300.987712 256.556734,294.027389 257.308144,287.028068 C258.585543,275.105637 258.334461,263.121922 258.197008,251.156779 C258.136529,245.92168 257.755325,240.669868 257.185353,235.462626 C256.100389,225.527266 254.958611,215.59005 253.507106,205.704832 C251.722047,193.550267 249.737223,181.4217 247.56363,169.332132 C246.11579,161.277992 244.11997,153.32599 242.487026,145.30342 C240.395905,135.037501 238.183825,124.788296 236.457413,114.45738 C234.2435,101.214567 232.419955,87.9030434 230.528599,74.6063758 C230.162057,72.0250395 230.213373,69.3749914 230.145563,66.7546565 C229.692883,49.2758528 231.371645,32.0458973 236.215495,15.2152132 C236.93575,12.7100171 238.029877,10.3143884 238.995715,7.88718948 C239.299945,7.12207397 239.840594,6.25481926 240.744119,6.65594778 C241.372739,6.93636632 242.04351,7.74233751 242.1718,8.41459919 C242.443041,9.842691 242.509018,11.3469229 242.408219,12.8028709 C242.252439,15.088932 242.030681,17.3879927 241.587166,19.6331982 C239.521702,30.0811104 241.929882,39.8140482 246.128619,49.2479966 C247.856863,53.1292864 249.867345,56.8805809 251.634077,60.7451571 C256.089393,70.4873802 255.763171,80.1441779 250.69573,89.5409848 C249.592439,91.5893401 249.420164,93.5318421 249.827026,95.6749084 C251.815515,106.133963 253.818666,116.591161 255.792494,127.052072 C257.31181,135.098785 258.873278,143.138069 260.269802,151.205209 C261.833103,160.2436 263.313932,169.298705 264.673802,178.370524 C265.61948,184.680869 266.435036,191.020929 267.076484,197.37213 C268.676439,213.181422 269.994157,229.022284 270.362531,244.911431 C270.578791,254.241383 270.096789,263.582477 268.678272,272.832575 C267.983675,277.361985 267.032499,281.852396 266.32324,286.381805 C264.761772,296.341306 261.259465,305.66383 257.385118,314.871215 C256.472429,317.038424 256.444938,317.027281 253.765518,318.936356" id="Fill-16" fill="#FFFFFF"></path>
                    <path d="M541.801229,11.732452 C541.8892,12.4065708 541.986333,12.6219916 541.918523,12.7241309 C539.431537,16.5422801 536.988535,20.3938567 534.382423,24.1265804 C533.783127,24.9845497 532.698163,25.6976671 531.693839,26.0263696 C524.929309,28.2381477 518.150118,30.4146413 511.328775,32.4444259 C495.666443,37.1038308 479.939966,41.5422435 464.493894,46.9221941 C443.397579,54.2706456 422.319592,61.6729525 401.13714,68.753985 C384.549289,74.3010725 368.098892,80.2214322 351.914238,86.8530523 C337.373524,92.8124107 323.140705,99.4997431 309.353234,107.117471 C306.08918,108.920692 302.792136,110.668201 299.551906,112.517849 C298.148051,113.320106 296.799177,114.246787 295.512615,115.234752 C291.090288,118.629488 289.864206,122.507063 291.927836,127.725448 C293.122763,130.750626 294.83268,133.569668 296.346498,136.461136 C296.797344,137.320962 297.36915,138.117648 297.977609,139.092613 C297.719197,140.153004 297.546922,141.283964 297.165719,142.336926 C296.214543,144.960975 295.450303,147.61288 295.210218,150.418923 C295.129579,151.375317 294.741045,152.318712 294.405659,153.234251 C294.248046,153.663235 293.881504,154.014223 293.426992,154.662343 C292.72873,154.33364 291.819706,154.199931 291.396351,153.66695 C285.991691,146.853336 281.758133,139.633023 284.186473,130.325355 C284.970872,127.316892 285.656306,124.275 286.598318,121.31482 C288.240425,116.146577 290.578962,111.262465 293.403167,106.671772 C296.291517,101.977083 300.521409,98.6269171 305.335936,96.1235781 C315.690743,90.7417704 326.010728,85.2986793 336.6606,80.5018508 C359.003157,70.4420675 381.943177,62.0777951 405.25707,54.66806 C419.753799,50.0625104 434.083751,44.9276939 448.516336,40.1122946 C469.088495,33.2466829 489.649659,26.3402155 510.549874,20.5275662 C519.586962,18.0149417 528.526917,15.1476156 537.503527,12.4177132 C538.870728,12.0017281 540.171951,11.2626117 541.801229,11.732452" id="Fill-18" fill="#FFFFFF"></path>
                    <path d="M910.572726,45.5633712 C911.650359,41.3478076 911.113375,37.2028129 909.14138,33.5016595 C907.803503,30.9908921 905.71788,29.6092272 903.010968,29.3715215 C900.168436,29.1208161 897.586149,29.7819354 896.011852,32.5099807 C898.225765,36.2259907 905.793021,42.983892 910.572726,45.5633712 M908.811493,69.1593848 C908.19387,70.0210683 907.743023,70.500194 907.460786,71.0666024 C904.684232,76.643403 901.086624,81.694651 897.782249,86.940892 C891.682993,96.6236887 883.932466,104.625831 874.943028,111.467301 C864.331642,119.540012 853.386704,127.120599 841.853465,133.794931 C840.730014,134.444908 839.624891,135.135741 838.464786,135.711434 C824.787278,142.519477 812.062779,150.93389 799.380431,159.426301 C797.089545,160.960246 794.718019,162.373481 792.353825,163.790431 C791.990948,164.007708 791.463128,163.944568 790.730044,164.052278 C790.4698,161.794073 791.323842,160.243414 792.898139,158.928604 C801.264456,151.947854 809.491488,144.796252 818.46993,138.602902 C829.033665,131.315734 839.602898,124.03228 850.065835,116.598403 C857.480976,111.32802 864.919942,106.057637 871.996032,100.339699 C881.099098,92.9819618 889.951083,85.2769515 897.520172,76.2367033 C899.921021,73.3712343 901.975488,70.208633 904.143583,67.1463139 C904.698893,66.3644847 905.078264,65.4545173 905.576761,64.5334073 C904.372671,62.2083476 902.397011,60.7653992 900.54964,59.2221686 C898.304571,57.3465214 895.975198,55.5692992 893.7173,53.7066515 C890.927917,51.4075909 888.708506,48.6034054 886.791493,45.533658 C885.149385,42.9058948 884.630729,40.1815636 885.470109,37.0969596 C886.723682,32.4895528 888.418938,28.0789962 890.596197,23.8541473 C891.814948,21.4882318 893.438729,19.4695897 895.720451,18.0693541 C897.932531,16.7136882 900.078634,15.2113134 902.400676,14.0803538 C909.035083,10.8490407 915.290119,13.915074 917.700132,19.8038635 C919.345905,23.8262911 920.172456,27.9545721 919.727108,32.2759891 C919.124147,38.1443507 918.49736,44.027569 916.331098,49.5783705 C915.629171,51.3778776 915.53387,53.0418181 916.556521,54.7410431 C916.974379,55.4337326 917.203468,56.2415609 917.560846,56.9751061 C920.256761,62.5129081 920.458359,68.3162721 919.342239,74.2514885 C918.312257,79.7391495 916.668317,85.0429599 914.676162,90.2502023 C912.980906,94.6793297 911.322304,99.1270278 909.821315,103.626724 C908.943448,106.256344 908.166379,108.967676 907.779677,111.70315 C907.416801,114.267772 907.546923,116.914106 907.607403,119.521442 C907.678878,122.598617 909.414454,124.661829 911.906938,126.201346 C916.065355,128.767825 920.379553,127.124313 921.853051,122.377625 C922.289235,120.971818 922.615458,119.527013 923.141445,118.158347 C923.409021,117.461944 924.010149,116.897393 924.380357,116.382982 C925.890509,116.576118 926.27721,117.53437 926.304701,118.50005 C926.522794,126.203203 925.245395,133.625937 920.716771,139.958568 C916.715967,145.550225 912.231328,147.360875 905.551103,141.566796 C902.070789,138.54719 900.161106,134.574903 899.444516,130.129062 C898.46585,124.07685 898.900202,118.013496 900.734744,112.158133 C903.423328,103.576583 905.58959,94.8167533 909.134049,86.5137644 C909.960601,84.5749766 910.448102,82.4616236 910.897116,80.3854121 C911.807972,76.158706 911.303977,73.5049438 908.811493,69.1593848 Z" id="Combined-Shape" fill="#FFFFFF"></path>
                    <path d="M334.277529,143.734376 C334.163901,142.373139 333.934812,141.702734 334.086927,141.138183 C335.204879,137.009902 336.737024,133.039473 339.082892,129.4646 C339.76466,128.426495 340.765319,127.39396 341.857613,126.87955 C346.981868,124.465351 352.12445,122.064151 357.38066,119.969368 C367.308445,116.010081 377.335197,112.308928 387.286807,108.414639 C395.581648,105.170326 403.777524,101.66788 412.109019,98.5294206 C421.503486,94.9916899 430.960265,91.6062395 440.466527,88.3842119 C454.571057,83.60224 468.717738,78.9446922 482.891911,74.3818553 C495.062932,70.4615669 507.2926,66.7232719 519.507606,62.9441213 C531.874727,59.1185438 544.25651,55.3412502 556.632795,51.5435288 C560.499811,50.356857 564.36866,49.1738993 568.237509,47.9909416 C568.547236,47.8962307 568.88079,47.7142372 569.174023,47.7625212 C569.765988,47.8609462 570.574213,47.9166585 570.85645,48.3122158 C571.158847,48.7374863 571.054383,49.5453146 570.953584,50.1581498 C570.87661,50.6168477 570.546722,51.0421182 570.290143,51.4562463 C568.48859,54.3718563 566.661379,57.2688956 564.87632,60.191934 C563.99662,61.6330253 562.929983,62.5745631 561.199906,63.0852591 C551.735796,65.8820163 542.313838,68.8254825 532.890048,71.7633775 C513.115117,77.9288713 493.305364,83.9903689 473.590912,90.3489988 C457.417254,95.5636695 441.305908,100.990047 425.273369,106.631845 C416.423216,109.746163 407.794822,113.504885 399.063796,116.962762 C384.909783,122.569276 370.722782,128.090364 356.612755,133.802731 C350.612465,136.233644 344.766123,139.058258 338.850138,141.702734 C337.541584,142.287713 336.229364,142.867121 334.277529,143.734376" id="Fill-22" fill="#FFFFFF"></path>
                    <path d="M1225.42134,211.356473 C1224.78539,209.839242 1224.20809,209.133552 1224.29972,208.528146 C1224.43901,207.599607 1224.96866,206.700782 1225.45249,205.859527 C1228.62308,200.34401 1231.66721,194.74121 1235.08705,189.387258 C1236.82079,186.672213 1239.19048,184.352724 1241.39523,181.970095 C1242.98052,180.25787 1245.14312,179.474184 1247.31855,178.774066 C1252.49595,177.108269 1257.80897,176.790709 1263.14399,177.407258 C1269.07647,178.094376 1274.98512,179.002487 1280.88278,179.95331 C1284.56103,180.547574 1288.12382,181.652535 1291.47218,183.35176 C1292.47833,183.862456 1293.49549,184.408436 1294.37152,185.112268 C1296.8695,187.119768 1297.48163,189.097554 1295.92749,192.011307 C1294.16992,195.311332 1291.99083,198.382937 1289.94553,201.523253 C1288.1678,204.255013 1286.21047,206.871633 1284.52987,209.662819 C1280.70134,216.015878 1275.62657,221.28069 1270.38502,226.369079 C1265.45687,231.152908 1259.54088,233.973807 1252.64073,234.415792 C1247.32588,234.757494 1242.01102,235.076911 1236.69617,235.409327 C1235.56905,235.479896 1234.41811,235.444612 1233.32032,235.669318 C1231.53342,236.035162 1229.81251,235.901453 1228.03845,235.561608 C1226.17458,235.203192 1224.2649,235.101053 1222.47434,234.896774 C1222.17195,233.938523 1222.37904,233.450112 1223.11213,233.156694 C1228.82285,230.87249 1234.5519,228.63657 1240.22963,226.268797 C1251.29369,221.653962 1262.17265,216.626856 1272.64475,210.743638 C1274.29786,209.8151 1276.09025,209.027699 1277.54359,207.241192 C1275.67789,205.779672 1273.69673,205.202122 1271.74123,204.683997 C1262.61984,202.264227 1253.32617,201.105411 1243.90421,201.424828 C1241.03236,201.521396 1238.14767,202.210371 1235.3363,202.903061 C1232.7815,203.530753 1230.60791,204.992272 1228.89432,207.066626 C1227.86617,208.312725 1226.86185,209.575537 1225.42134,211.356473" id="Fill-24" fill="#FFFFFF"></path>
                    <path d="M93.4736629,200.305382 C94.9654881,198.281169 96.7725393,197.904182 98.3450037,197.187351 C106.014891,193.688619 113.761753,190.358881 121.376659,186.746867 C130.624509,182.362309 139.32438,176.965645 147.906956,171.381416 C148.409119,171.054571 148.79582,170.542018 149.303481,170.049892 C147.818986,168.27267 145.916634,167.841829 144.093089,167.407273 C137.277243,165.780474 130.344105,165.277206 123.372479,165.685763 C120.322851,165.864042 117.276889,166.393309 114.267581,166.969003 C109.366916,167.904969 105.124195,170.14646 101.724519,173.927468 C101.222357,174.486448 100.54792,174.887577 100.080579,175.260849 C98.7408689,174.787295 98.7903521,173.953467 98.9552959,173.154924 C99.0872509,172.521661 99.320005,171.892112 99.6132385,171.316419 C102.430112,165.780474 105.159016,160.198102 108.126172,154.747582 C112.154467,147.352704 118.589109,143.280135 126.675021,141.870614 C136.516669,140.154675 146.343655,140.643087 156.100999,142.624587 C159.284414,143.27085 162.299221,144.425951 164.996969,146.374025 C167.275026,148.019394 168.129069,150.125319 167.203551,152.769796 C166.450307,154.916576 165.643915,157.098641 164.491141,159.039286 C160.822057,165.221494 156.991695,171.305276 153.203486,177.413201 C149.897278,182.746724 145.555591,187.168423 140.938996,191.302276 C136.340729,195.417557 130.879256,197.991465 124.812989,198.608014 C115.002497,199.605265 105.14802,200.167959 95.3082047,200.882933 C94.8885144,200.912646 94.4449988,200.621085 93.4736629,200.305382" id="Fill-26" fill="#FFFFFF"></path>
                    <path d="M683.61791,115.94397 C683.484122,115.247566 683.231208,114.746155 683.335673,114.337598 C684.143898,111.176854 684.897141,107.991968 685.908797,104.894365 C687.056072,101.390061 689.200342,98.7251565 692.325111,96.5728049 C702.626769,89.4713444 713.265645,82.9418636 723.999823,76.5535205 C734.455428,70.3304573 744.806569,63.9309717 755.287833,57.7543354 C769.126619,49.6017697 783.386929,42.2737459 797.960632,35.5529862 C806.931743,31.4135627 815.770899,26.9825783 824.659538,22.6667326 C830.342769,19.9071169 836.007673,17.1066456 841.692737,14.3526012 C842.543114,13.9403302 843.461301,13.6766254 844.711208,13.2086421 C844.711208,14.2560332 844.925635,15.0657186 844.676387,15.6859821 C843.155238,19.470704 841.5058,23.2034277 839.946165,26.97515 C839.407348,28.2769606 838.479998,28.9640789 837.231923,29.5602004 C829.197326,33.4043487 821.177391,37.2837815 813.210604,41.2672105 C796.690564,49.5293437 779.884622,57.2139261 763.703633,66.1557493 C755.899958,70.4678809 748.246564,75.0641452 740.591338,79.6418387 C732.796826,84.3031006 725.002315,88.9717909 717.352587,93.8689015 C706.286689,100.951791 694.973376,107.663266 684.561755,115.756405 C684.455458,115.838116 684.270355,115.819545 683.61791,115.94397" id="Fill-28" fill="#FFFFFF"></path>
                    <path d="M427.429918,4.91790991 C426.940584,5.98758596 426.722492,6.73784485 426.300969,7.3413947 C424.156699,10.409285 421.862147,13.3750362 419.816844,16.5079242 C418.768534,18.1161524 417.540619,19.1431157 415.713408,19.6575259 C407.775945,21.8934459 399.8843,24.2965029 391.930342,26.461854 C382.103356,29.1360442 372.21589,31.5446723 362.597833,35.00812 C352.706702,38.5681356 342.580984,41.4651748 332.700849,45.0549037 C321.90436,48.9751921 311.270981,53.3523213 300.569793,57.5381717 C297.554986,58.7155582 294.529184,59.8706597 291.541868,61.1167581 C288.279645,62.476138 284.784669,63.4418178 282.409478,66.4168543 C282.206047,66.6731309 281.359336,66.7659847 281.135745,66.5654204 C280.716055,66.1847197 280.344015,65.5495996 280.298197,64.9924766 C280.248714,64.3796414 280.514457,63.6999514 280.776534,63.1094011 C282.435136,59.3581066 284.482272,55.844518 287.013243,52.615062 C288.807466,50.3234296 291.309114,49.1757563 293.856579,48.1450789 C299.708419,45.7754493 305.58775,43.4782457 311.476245,41.20147 C328.989613,34.4324263 346.633104,28.062654 364.569828,22.4969958 C375.071251,19.2396836 385.473708,15.6425265 396.185893,13.1577582 C405.957898,10.8884108 415.506312,7.82980581 425.153693,5.12218832 C425.732829,4.96062267 426.368779,5.00704958 427.429918,4.91790991" id="Fill-30" fill="#FFFFFF"></path>
                    <path d="M1056.39241,297.489908 C1056.76262,298.015461 1057.10167,298.791719 1057.68447,299.263416 C1058.93621,300.275523 1060.25393,301.235631 1061.65229,302.021175 C1063.01582,302.78629 1064.51314,303.306272 1065.92433,303.922821 C1066.23772,303.319271 1066.53279,303.023996 1066.50163,302.769577 C1066.15525,299.868823 1064.72757,297.523336 1062.46784,295.824111 C1061.65229,295.211275 1060.37672,295.023711 1059.30642,295.012568 C1057.92089,294.995854 1056.9074,295.825968 1056.39241,297.489908 M1048.84898,307.272987 C1046.84949,308.14767 1046.2392,309.921178 1045.38149,311.462552 C1043.95198,314.029031 1042.74972,316.738506 1041.17359,319.204703 C1037.55216,324.872501 1033.11884,329.856894 1028.08622,334.284164 C1023.18372,338.596296 1017.86337,342.282593 1012.10499,345.333769 C1005.65569,348.748933 999.123916,351.943104 992.361219,354.70272 C982.622203,358.675007 973.00048,362.944425 963.343936,367.124705 C960.807466,368.222237 958.239841,368.905641 955.474283,369.327197 C946.86055,370.64015 938.303631,372.346804 930.127916,375.555832 C929.185903,375.92539 928.242058,376.129668 927.419172,375.340411 C926.810712,374.755432 927.554792,373.539047 928.967811,372.76836 C935.792819,369.043065 943.035686,366.261164 950.139266,363.16356 C964.088015,357.081635 977.946962,350.788003 991.926867,344.782218 C1001.46429,340.681793 1010.7213,336.031673 1019.72173,330.867144 C1029.76131,325.106492 1037.95719,317.382911 1043.53229,306.999997 C1044.68873,304.843931 1045.90748,302.715721 1047.19954,300.63951 C1048.66937,298.277309 1050.23267,295.978248 1052.97257,294.890001 C1054.46073,294.301308 1054.89875,292.774791 1055.71797,291.578834 C1057.0925,289.573191 1058.35891,287.428268 1060.0395,285.712329 C1063.31639,282.367734 1067.12292,282.611011 1070.09924,286.193312 C1071.8898,288.349378 1073.19102,290.839717 1073.46043,293.695901 C1073.97359,299.109279 1074.11287,304.481801 1071.33632,309.473623 C1070.54826,310.892429 1070.02777,312.46723 1069.42297,313.984461 C1068.78885,315.575976 1067.5921,316.27238 1065.98298,316.086672 C1064.22724,315.886108 1062.42569,315.722685 1060.75976,315.176704 C1057.03569,313.954748 1053.64151,312.084672 1050.89062,309.161634 C1050.24001,308.468944 1049.49409,307.865394 1048.84898,307.272987 Z" id="Combined-Shape" fill="#FFFFFF"></path>
                    <path d="M1131.43763,374.591638 C1134.50925,373.027979 1136.96142,373.182117 1139.35677,373.011266 C1149.53014,372.283292 1159.64669,371.169046 1169.42236,368.017587 C1172.80738,366.925626 1176.17956,365.757525 1179.47477,364.418573 C1190.58649,359.898449 1201.5186,354.997624 1211.63882,348.414288 C1214.49418,346.559068 1217.48333,344.915556 1220.42299,343.195903 C1223.54593,341.370397 1226.92361,340.453001 1230.48823,339.868022 C1233.81826,339.322041 1236.95036,339.894021 1240.0568,340.740848 C1241.39468,341.106692 1242.62076,342.090942 1243.74971,342.986053 C1244.62575,343.678743 1245.38815,344.592424 1246.00211,345.539533 C1247.65338,348.093013 1249.8563,349.578675 1252.91143,349.129262 C1256.36425,348.618566 1259.48902,347.45975 1261.20993,343.951733 C1262.64678,341.021266 1264.17526,338.133512 1265.78804,335.301471 C1266.2059,334.569783 1267.10026,334.116656 1268.41431,332.987553 C1268.28052,334.72392 1268.26036,335.617174 1268.13757,336.497428 C1267.71422,339.533748 1269.16389,341.741812 1271.99359,342.207938 C1272.78349,342.337934 1273.61371,342.358361 1274.4091,342.274793 C1275.18984,342.191224 1275.95041,341.910806 1276.98406,341.650815 C1276.54604,337.346112 1278.64083,333.806524 1280.15648,330.0998 C1280.36174,329.594675 1281.02335,329.280829 1281.78026,328.60671 C1282.36673,329.943805 1283.09614,330.905771 1283.17312,331.919735 C1283.35456,334.352505 1283.67345,336.91527 1283.13097,339.232902 C1282.24027,343.034337 1280.79976,346.71692 1279.38674,350.369789 C1279.01837,351.324327 1278.01404,352.42743 1277.09036,352.685564 C1274.62353,353.374539 1272.05224,353.883378 1269.50294,353.99666 C1267.58226,354.082085 1265.6964,353.307684 1264.26689,351.781167 C1263.73724,351.214759 1263.14161,350.707777 1262.36087,349.970518 C1261.44085,351.638172 1260.7041,353.071836 1259.87939,354.451643 C1257.30809,358.756347 1253.43741,360.728562 1248.55324,360.81213 C1245.6429,360.862271 1243.14858,359.944876 1241.32321,357.526962 C1241.22607,357.396967 1241.11244,357.278114 1241.02264,357.142547 C1236.69378,350.596353 1230.45707,350.354933 1223.75486,351.857308 C1220.56594,352.572282 1217.73074,354.174939 1214.93586,355.855593 C1208.95756,359.449036 1203.11122,363.324755 1196.90017,366.453929 C1188.22046,370.825487 1179.32815,374.899912 1169.8842,377.254685 C1165.07334,378.4525 1159.99491,378.72549 1155.01727,378.994766 C1152.66224,379.121047 1150.25589,378.248221 1147.87337,377.837807 C1143.42355,377.070835 1139.0727,375.713312 1134.50192,375.661314 C1133.76884,375.653885 1133.03942,375.169188 1131.43763,374.591638" id="Fill-34" fill="#FFFFFF"></path>
                    <path d="M196.981958,105.014703 C198.644225,106.819781 198.867816,108.364869 198.548924,110.065951 C197.975286,113.120842 197.70038,116.268586 196.802353,119.221338 C195.220725,124.423009 193.001314,127.4909 187.008355,127.882743 C183.390587,128.120449 180.346457,126.707213 178.02075,123.936455 C174.362662,119.585325 173.06877,114.374368 173.462802,108.812424 C173.822013,103.757462 174.602747,98.7322134 175.198378,93.6939649 C176.006602,86.8654947 176.974273,80.0500241 177.58823,73.2029831 C178.511916,62.9147795 174.573424,54.3035159 167.981169,46.7916416 C166.075152,44.6188621 164.110487,42.3903703 161.570353,41.4135481 C160.36443,41.4692604 160.349768,42.2566608 160.047371,42.7859276 C159.497559,43.7478932 158.619691,44.2084482 157.600705,43.9428863 C153.819826,42.9604928 150.167236,41.6456827 147.102947,39.0717747 C146.18476,38.301088 145.645943,37.2945525 145.754073,36.0595967 C146.175596,31.162486 146.972824,26.3378013 148.607601,21.6876819 C148.704735,21.4128345 149.038288,21.2234127 149.485469,20.7647148 C150.082932,20.9689933 150.861833,21.1101311 151.519776,21.4759751 C155.907281,23.9180307 160.336939,26.2913744 164.623646,28.9061381 C171.10044,32.8561397 175.363321,38.7467863 178.220515,45.7275368 C179.147866,47.991313 179.816804,50.3627996 180.639691,52.6711457 C180.830293,53.2059837 181.171177,53.6851094 181.453414,54.2069479 C182.815117,53.5012589 182.587861,52.3944413 182.571366,51.5271866 C182.477898,46.6133622 182.312954,41.6995379 182.111356,36.7875706 C181.865773,30.7520721 183.401584,25.0768464 185.769444,19.6671827 C187.545339,15.6076135 191.648775,14.1683792 195.512125,16.3133025 C198.457289,17.9493869 201.078063,20.2261627 203.704335,22.3915138 C204.338452,22.9133523 204.807626,24.1798785 204.6885,25.0044204 C204.243152,28.0425975 204.166178,31.1996275 202.58455,34.2638037 C201.637039,33.931387 200.691361,33.7679643 199.928954,33.2981239 C198.136565,32.1894493 196.49629,30.8207839 194.672745,29.7752499 C193.146098,28.9005669 191.494827,28.1670217 189.8124,27.6786105 C188.373723,27.2626254 186.865404,28.4845817 186.638148,29.9795283 C186.515356,30.7836424 186.473204,31.6211839 186.546512,32.4308692 C187.44454,42.1842349 185.921559,51.7128942 184.063192,61.2248399 C183.341104,64.9167079 182.936075,68.6698595 182.31662,72.3821553 C181.317793,78.3563703 180.252989,84.3213 179.23217,90.2918008 C178.762997,93.0365598 178.229678,95.7738906 177.908954,98.5372203 C177.375636,103.101914 178.453269,107.334192 180.914597,111.183911 C182.087531,113.018703 183.729638,114.32237 185.719961,115.184054 C189.574148,116.855423 193.283551,115.172911 194.54079,111.13377 C194.978807,109.72982 195.26471,108.275729 195.728385,106.881065 C195.911656,106.329513 196.389993,105.876387 196.981958,105.014703" id="Fill-36" fill="#FFFFFF"></path>
                    <path d="M729.424458,169.224608 C728.887475,166.338711 730.225352,161.623594 732.224838,157.012473 C733.887105,153.175753 736.883585,150.469992 739.764603,147.220109 C738.413897,146.254429 737.090681,146.475421 735.917747,146.239572 C734.649512,145.98701 733.350121,145.899727 732.09105,145.613737 C730.370136,145.223751 728.568583,144.948904 726.992453,144.207931 C724.159085,142.876407 723.2354,140.993331 723.623934,137.843729 C723.821867,136.228073 724.208568,134.621702 724.668578,133.059901 C727.137237,124.6882 730.373802,116.700914 736.013048,109.915156 C738.569677,106.836124 741.502011,104.451637 745.49915,103.489672 C749.39549,102.549991 752.490935,103.794232 755.15936,106.551991 C756.09954,107.526956 756.632858,108.704343 756.244324,110.12872 C754.999914,114.697128 753.770166,119.269251 752.474441,123.822802 C752.369977,124.190503 751.812833,124.424495 751.270351,124.886907 C750.672888,124.251787 750.157897,123.663094 749.597088,123.11897 C745.878521,119.510671 742.108638,119.037116 737.728463,121.720592 C735.653837,122.992689 733.810131,124.556347 732.607874,126.558276 C732.695844,128.075507 733.819295,128.311356 734.656843,128.498921 C742.808733,130.315141 750.989947,130.790553 759.105183,128.363354 C760.925063,127.819231 762.684463,126.877693 764.291749,125.834016 C766.874036,124.157076 769.306041,122.244287 771.804024,120.431781 C773.502945,119.198682 775.234855,118.026866 777.067565,117.414031 C778.542895,118.084436 778.29548,119.142969 777.985752,120.026938 C776.638711,123.876657 775.247684,127.713377 773.766855,131.514813 C773.429637,132.380211 772.793687,133.215895 772.095425,133.832444 C762.345412,142.43628 752.195869,150.544275 742.004174,158.600273 C737.816433,161.911441 733.832124,165.48817 729.424458,169.224608" id="Fill-38" fill="#FFFFFF"></path>
                    <path d="M987.471185,143.62778 C989.870201,147.475642 995.042106,151.308648 1000.3423,153.271578 C1001.33929,150.45625 1000.40278,147.824773 999.561567,145.271293 C998.687364,142.615673 997.569412,139.934055 994.327349,139.467929 C991.143934,139.009231 989.280068,141.000017 987.471185,143.62778 M938.426056,243.971193 C937.025866,242.85509 937.608668,241.96555 938.222625,241.213434 C940.588653,238.308967 942.958346,235.404499 945.421507,232.5836 C954.533736,222.150544 963.75043,211.810342 972.798515,201.321575 C981.542371,191.185651 989.452343,180.410894 996.202211,168.793023 C996.5266,168.234043 996.76302,167.623065 997.158885,166.787381 C996.319504,166.074263 995.546101,165.294291 994.65907,164.687027 C992.247224,163.034229 989.75474,161.503998 987.361222,159.827058 C985.902386,158.805666 984.434386,157.734133 983.208303,156.45275 C980.677332,153.813844 979.412763,150.745954 981.025547,147.074514 C982.599844,143.490356 984.117327,139.874628 985.834575,136.359183 C987.388713,133.179868 990.044308,130.953233 992.971145,129.15744 C997.919459,126.12112 1002.69733,127.701492 1004.82877,133.135298 C1006.64132,137.761275 1007.34875,142.623102 1006.69447,147.596352 C1006.29127,150.662386 1005.68281,153.70242 1005.12017,157.032158 C1006.29127,158.114833 1007.57234,159.117655 1008.62981,160.324754 C1009.79908,161.659992 1010.85289,163.123369 1011.79123,164.636886 C1012.7864,166.243257 1012.88719,167.987052 1012.14128,169.799559 C1011.03799,172.484891 1010.0355,175.209222 1009.05683,177.744132 C1007.38357,177.918697 1007.07384,176.84345 1006.68347,176.004051 C1005.57652,173.613994 1004.23864,171.465356 1001.6252,170.044693 C999.026415,175.110797 996.684213,180.110047 993.951644,184.877162 C991.274056,189.549567 988.363714,194.104975 985.253606,198.493247 C982.051864,203.009657 978.641192,207.399786 975.03442,211.593065 C971.535779,215.661919 967.815379,219.565494 963.931869,223.261076 C959.929232,227.068083 955.697507,230.644812 951.407135,234.121259 C947.256048,237.484425 942.901532,240.593171 938.426056,243.971193 Z" id="Combined-Shape" fill="#FFFFFF"></path>
                    <path d="M805.37504,326.342005 C806.001826,328.750634 803.945527,330.522284 803.79891,333.038623 C805.844213,336.671065 808.961651,338.257008 813.592907,337.209617 C813.537926,336.554069 813.690041,335.829809 813.405971,335.413824 C812.223874,333.694171 812.526271,332.013517 813.29051,330.293864 C814.084073,328.503642 814.820822,326.68185 815.729846,324.952912 C816.144038,324.163655 816.913776,323.56939 817.553392,322.852559 C819.897427,325.809024 821.152832,329.439609 820.34644,332.979197 C819.369606,337.267186 818.053721,341.512463 816.473926,345.614745 C815.442111,348.290792 812.6344,348.994624 810.088768,349.497892 C807.037307,350.101442 804.352388,348.91477 801.95887,347.083692 C800.945382,346.307434 800.080343,345.328755 799.02287,344.324077 C797.51455,345.599888 797.336778,347.488535 796.631185,349.039194 C795.066051,352.4785 792.705522,354.959554 789.238036,356.437787 C786.096773,357.776739 783.252408,357.368182 780.571155,355.334683 C780.31091,355.13969 780.048832,354.939126 779.827075,354.703277 C776.189147,350.823844 771.913437,350.794131 767.3225,352.539783 C761.208583,354.862986 755.609656,358.0553 750.780468,362.558711 C746.975764,366.107584 743.176558,369.665742 739.353527,373.196045 C738.279559,374.187724 737.135949,375.105119 736.016163,376.046657 C728.351774,382.492569 719.998286,387.647814 710.321582,390.429714 C705.824113,391.72224 701.443939,393.356467 696.776028,394.104869 C692.800882,394.743703 688.924703,396.006515 684.984378,396.90534 C682.959234,397.365895 680.880942,397.728025 678.97859,396.517211 C678.916278,395.185687 679.883949,395.066834 680.547389,394.983266 C689.056658,393.893162 696.63491,390.277434 704.081207,386.256863 C707.786945,384.254935 711.553162,382.362574 715.299219,380.438643 C727.523389,374.161724 738.314381,365.905162 748.080887,356.205652 C752.941232,351.37911 758.109472,346.93884 764.203229,343.71867 C767.377482,342.04173 770.676358,340.777061 774.185996,340.062086 C777.734121,339.337826 780.934031,339.950662 783.635444,342.533855 C783.871864,342.758561 784.097287,342.996267 784.348368,343.200546 C787.995459,346.166297 791.288837,346.054872 794.730665,342.855129 C796.689831,341.035194 797.791289,338.715706 798.769956,336.24208 C799.847589,333.52332 801.196463,330.906699 802.572827,328.323506 C803.076822,327.376397 803.769587,326.349434 805.37504,326.342005" id="Fill-42" fill="#FFFFFF"></path>
                    <path d="M96.2425199,96.4948076 C95.4434587,99.5998395 94.6022452,101.910043 94.3163426,104.288958 C94.1110792,106.004896 94.3804874,107.897257 94.8991441,109.561198 C96.4331216,114.471308 100.576877,116.831652 105.479374,115.485272 C109.379379,114.415596 112.984318,112.591946 115.909321,109.650337 C116.200722,109.358776 116.230045,108.801653 116.394989,108.326242 C115.057112,106.198032 112.883519,105.375347 110.836383,104.556377 C105.897231,102.586018 101.022225,100.532092 96.2425199,96.4948076 M85.0208419,18.111324 C85.6146397,19.1048599 86.0471591,19.4985601 86.0636534,19.908974 C86.2139356,23.4429905 88.2079231,26.0298981 90.3430292,28.5128093 C92.0401179,30.4887387 93.7921878,32.4349548 95.6798782,34.2196053 C99.1748544,37.5289156 101.584867,41.5810564 103.7383,45.8151908 C105.237456,48.7660853 105.878904,51.8934021 105.933886,55.2732812 C106.045681,62.0776094 104.753621,68.6108044 103.025376,75.1161433 C102.191494,78.2564596 100.824293,81.276066 100.657516,84.5519489 C101.960572,86.7228713 103.912407,87.9132573 105.926555,88.9253639 C108.384218,90.1584627 110.951843,91.1649982 113.457157,92.303386 C115.073606,93.0387883 116.715713,93.7407632 118.253356,94.6265887 C121.086725,96.2626731 122.173521,98.8755797 121.85463,102.090179 C121.709846,103.553555 121.449601,105.015074 121.103219,106.443166 C120.524083,108.827652 119.845981,111.187997 119.189871,113.552055 C118.048093,117.671051 115.751708,120.933934 112.099119,123.13457 C110.156447,124.306385 108.197281,125.465201 106.175803,126.490307 C103.637501,127.777261 100.86278,128.159819 98.1357084,127.528413 C94.0231091,126.575732 91.340023,123.823545 90.1835835,119.737977 C89.1462702,116.073965 89.0124824,112.357955 89.8555286,108.571376 C91.7798732,99.9192567 94.7580255,91.6051253 97.5840629,83.2427099 C99.3214712,78.0986081 100.43026,72.8542242 100.780308,67.4148472 C101.075374,62.8278683 99.9537558,58.6568746 97.7893263,54.7050158 C95.3371615,50.2313186 92.1885673,46.2998877 88.6679331,42.6544466 C87.1981004,41.133501 85.7667546,39.5716997 84.3537358,37.9968988 C81.8044375,35.159286 80.6150092,31.8611182 81.4562227,28.0429689 C82.0500205,25.3390656 82.8234237,22.6741609 83.6096559,20.0203986 C83.7764325,19.4539903 84.3409069,19.0064348 85.0208419,18.111324 Z" id="Combined-Shape" fill="#FFFFFF"></path>
                    <path d="M1091.5632,128.356112 C1088.35779,127.860272 1088.09388,127.609567 1088.21301,125.316077 C1088.22217,125.152655 1088.22583,124.987375 1088.25332,124.825809 C1089.9944,115.074301 1088.41644,105.558641 1086.02658,96.1618338 C1084.17738,88.8820941 1082.6379,81.4779302 1079.41783,74.6290322 C1074.86722,64.9518067 1069.16932,56.0935519 1061.5984,48.4962521 C1057.1046,43.9854133 1052.53932,39.5878562 1047.15849,36.1931205 C1044.96657,34.8095985 1044.05754,33.0528041 1044.16018,30.5123235 C1044.2848,27.4035775 1044.20966,24.2874032 1044.32879,21.1805143 C1044.37644,19.912131 1044.3911,18.5174666 1046.03504,17.6223557 C1046.57935,17.8544903 1047.39308,18.0271984 1047.9942,18.4858963 C1051.7311,21.3420799 1055.59445,24.0626969 1059.09309,27.197442 C1069.01354,36.0835529 1076.93635,46.5463218 1082.65073,58.7008873 C1085.24035,64.2108332 1086.71385,70.0921943 1088.35046,75.9048437 C1089.76531,80.9319497 1090.96207,86.0556237 1091.78679,91.2145821 C1093.34276,100.962377 1093.45089,110.765883 1092.07636,120.574961 C1091.71715,123.13587 1091.72448,125.750633 1091.5632,128.356112" id="Fill-46" fill="#FFFFFF"></path>
                    <path d="M1178.54669,116.309071 C1178.82159,116.446494 1179.23029,116.509635 1179.34941,116.732484 C1182.67028,122.886836 1187.77804,127.45153 1192.66954,132.216788 C1194.6507,134.148147 1196.54206,136.174218 1198.53055,138.100006 C1205.02017,144.384353 1207.56397,152.295499 1207.73075,161.144468 C1207.85904,167.913512 1206.90236,174.561845 1204.70128,180.95576 C1201.93755,188.995044 1198.96857,196.963759 1196.10771,204.969616 C1195.22801,207.432099 1194.32081,209.890868 1193.5859,212.399779 C1192.07758,217.545737 1193.55291,222.190286 1196.57505,226.257283 C1199.6485,230.39485 1204.52167,230.209142 1207.68493,226.162572 C1208.58112,225.014899 1209.46449,223.85794 1210.37535,222.723267 C1210.44316,222.637841 1210.67774,222.689839 1210.88117,222.673126 C1211.82685,223.131823 1211.58127,224.02322 1211.38883,224.725195 C1210.65025,227.404956 1209.79804,230.053147 1209.01731,232.719909 C1208.25124,235.340244 1206.53765,237.347744 1204.6518,239.111966 C1200.49888,243.000685 1195.25733,241.526166 1191.66522,237.901153 C1188.50746,234.714409 1187.43349,230.61027 1187.3327,226.234998 C1187.20624,220.74548 1188.55694,215.488097 1190.40248,210.408993 C1193.19187,202.728124 1196.12054,195.091826 1199.23064,187.537239 C1203.00419,178.368852 1203.3799,169.124326 1200.50621,159.692234 C1199.0767,155.001259 1195.99958,151.413387 1192.66954,148.02608 C1189.35784,144.661057 1185.95267,141.387031 1182.68128,137.981153 C1180.6543,135.871514 1178.60533,133.735876 1176.91008,131.358818 C1173.55622,126.652987 1174.30763,120.714056 1178.54669,116.309071" id="Fill-48" fill="#FFFFFF"></path>
                    <path d="M850.85225,70.9005797 C848.400085,70.8634382 847.181334,69.6767663 845.768315,68.9302216 C844.626537,68.3266717 843.504919,67.6116973 842.288,67.2328537 C837.561444,65.7601921 833.425019,68.7890838 833.39203,73.8273322 C833.366373,77.755049 833.388365,81.7069077 833.798892,85.6030541 C834.249738,89.9077574 833.564305,94.099179 833.12079,98.3073143 C832.726757,102.040038 831.905703,105.730049 831.187281,109.423774 C831.042497,110.161033 830.507346,110.822153 829.979526,111.856544 C829.339911,111.20471 828.786432,110.85558 828.559177,110.354169 C828.225623,109.624338 828.106497,108.790511 827.930557,107.991968 C826.418572,101.096643 823.236989,95.1298564 818.275846,90.1510344 C816.102253,87.9689696 813.932325,85.7831906 811.566298,83.4024185 C810.809389,84.0059684 810.221089,84.4628092 809.645618,84.9345066 C808.018173,86.2641734 806.222118,86.6727302 804.195142,86.0450383 C802.342273,85.4712017 800.417928,85.0942152 798.625539,84.3736695 C795.286343,83.0365745 794.06026,81.0940725 794.391981,77.5507706 C794.760355,73.6397675 795.416465,69.8234754 797.254672,66.2151758 C798.543067,63.6895518 799.417269,62.9262934 802.630008,64.3116724 C807.413379,66.3730273 811.956665,68.8485102 815.79619,72.4716664 C821.406113,77.7661914 826.383751,83.5194143 828.846912,91.0851439 C828.938547,91.3655624 829.217119,91.597697 829.44804,91.8094037 C829.550672,91.9041146 829.750437,91.8929721 830.160964,91.9895401 C829.842073,88.5223784 829.653304,85.112786 829.191461,81.7403351 C828.251281,74.8580097 829.983192,68.4009548 832.189773,62.0534674 C833.186767,59.1861414 835.539966,57.2529247 838.047112,55.7004088 C839.751531,54.6455894 841.725359,54.5100228 843.691856,54.8610103 C846.459246,55.3531355 848.893084,56.5899484 851.08867,58.3374574 C852.327581,59.3254221 853.011182,60.5752346 852.69229,62.189034 C852.125983,65.0563601 851.4882,67.9106866 850.85225,70.9005797" id="Fill-50" fill="#FFFFFF"></path>
                    <path d="M455.87283,132.372968 C455.119587,133.763918 454.595432,134.729598 454.047452,135.741705 C450.319721,136.087121 447.290253,134.625602 444.592505,132.47325 C442.704815,130.969018 441.819616,128.87795 442.479392,126.348612 C443.377419,122.901878 443.729299,119.262008 445.747112,116.333398 C447.913374,115.484715 449.773574,116.240545 451.591621,116.85338 C460.518748,119.859987 468.23262,124.666101 474.276895,132.15569 C476.914163,135.424145 478.842173,138.872736 479.507447,143.038158 C479.654063,143.966696 479.881319,144.882235 480.599741,145.836772 C480.751856,144.661243 481.050588,143.485714 481.030428,142.313898 C480.95712,138.219045 480.905804,134.116763 480.597909,130.034909 C480.134233,123.886128 480.979112,117.949055 482.918118,112.141977 C485.359287,104.82881 494.755587,102.392325 500.427821,107.569855 C501.998453,109.005375 502.540935,110.816024 502.507946,112.866237 C502.493284,113.681493 502.460296,114.509749 502.322842,115.312006 C501.936141,117.555355 501.492625,119.789418 501.0766,122.001196 C498.906673,122.287186 498.008645,120.703099 496.898023,119.63528 C494.753754,117.573926 492.224615,116.818095 489.354593,116.918378 C486.026393,117.033516 484.633534,118.376183 484.61704,121.730063 C484.600545,124.84438 484.57672,127.96984 484.82047,131.067443 C485.434428,138.857879 484.107547,146.432894 482.474603,153.961482 C481.92479,156.49082 480.880146,158.92359 479.355332,160.897663 C478.087097,161.12794 477.682068,160.347968 477.463976,159.588424 C477.057115,158.177045 476.793204,156.724812 476.485309,155.287434 C475.717404,151.699563 474.155936,148.514677 471.901704,145.641779 C467.61683,140.181974 462.44859,135.845701 455.87283,132.372968" id="Fill-52" fill="#FFFFFF"></path>
                    <path d="M139.388158,354.422116 C137.582939,354.942097 136.21024,354.422116 134.881526,353.863136 C126.977052,350.537112 119.085406,347.181375 111.193761,343.829352 C110.748412,343.63993 110.304897,343.431937 109.892537,343.179375 C108.814904,342.514541 108.463024,341.545148 108.849726,340.224766 C109.032997,339.598931 109.315234,339.004667 109.558984,338.397403 C111.877361,332.638609 114.193906,326.879815 116.515948,321.122878 C117.192218,319.445938 117.793346,317.692857 120.058575,317.314014 C128.591668,320.851744 137.253052,324.441473 145.907104,328.046059 C146.499069,328.29305 147.063544,328.632895 147.596862,328.998739 C148.48206,329.602289 148.885256,330.493685 148.623179,331.542934 C148.388592,332.486329 148.009221,333.396296 147.65001,334.302549 C145.309641,340.226623 142.967439,346.14884 140.595913,352.059915 C140.2422,352.938312 139.73454,353.751711 139.388158,354.422116" id="Fill-54" fill="#FFFFFF"></path>
                    <path d="M388.927815,271.477652 C389.470297,271.405226 389.664564,271.312373 389.785523,271.371799 C397.317957,275.095237 404.86322,278.794534 412.359001,282.594112 C413.783016,283.316515 415.080574,284.354621 416.308489,285.400155 C417.692184,286.575684 418.06789,288.133771 417.221178,289.81814 C416.048244,292.148771 414.977942,294.561113 413.553927,296.728321 C411.384,300.030203 409.908669,303.623646 408.47549,307.272801 C407.960499,308.580183 407.802886,310.188411 406.327555,310.944241 C397.490232,306.281122 388.669403,301.627289 379.711121,296.902886 C379.87973,295.716214 379.850406,294.717107 380.172963,293.85171 C381.87555,289.262874 383.688099,284.716751 385.418177,280.139057 C386.164089,278.159413 386.746891,276.116629 387.509298,274.144414 C387.897832,273.139736 388.520953,272.227911 388.927815,271.477652" id="Fill-56" fill="#FFFFFF"></path>
                    <path d="M1298.93533,39.1633286 C1297.70375,42.3983558 1297.03848,45.7410934 1296.92852,49.1432575 C1296.84971,51.5444574 1298.63294,53.5278151 1300.97697,54.0217974 C1303.54093,54.5603496 1306.1727,54.6773454 1308.59738,53.5166726 C1310.92308,52.4042838 1313.14249,51.0523321 1315.36557,49.7319508 C1316.01985,49.3456788 1316.77309,48.8461253 1316.31125,47.3790349 C1313.60984,46.2555036 1310.5932,45.124544 1307.68469,43.7521645 C1304.77618,42.3816421 1301.9758,40.7715568 1298.93533,39.1633286 M1302.44497,22.0837963 C1302.2727,26.6373478 1304.77434,28.6522757 1307.77266,30.1435081 C1310.22849,31.3673215 1312.8181,32.3107164 1315.33991,33.395249 C1316.82441,34.0340833 1318.32906,34.6394903 1319.76591,35.3748926 C1322.77888,36.916266 1324.02329,39.2617536 1323.5138,42.548779 C1323.03729,45.6166693 1322.56995,48.6975592 1321.83503,51.706023 C1321.00665,55.0951876 1319.39936,58.0739383 1316.5605,60.2764309 C1313.33126,62.7834842 1309.92426,64.941407 1306.00776,66.1317931 C1302.99295,67.0473318 1299.97998,67.0491888 1297.04398,65.6842376 C1295.02067,64.7426999 1293.68096,63.2143259 1292.94421,61.1009729 C1292.05718,58.5660635 1292.05351,55.979156 1292.3834,53.3513928 C1293.32175,45.8636605 1295.28091,38.6192052 1297.46,31.426748 C1297.97866,29.7089522 1298.53397,28.002299 1299.0453,26.2826462 C1299.51447,24.700417 1300.2054,23.3113238 1302.44497,22.0837963 Z" id="Combined-Shape" fill="#FFFFFF"></path>
                    <path d="M1383.34607,362.123598 C1380.02886,360.870071 1376.94075,359.917391 1374.04507,358.548725 C1371.13106,357.172632 1370.08275,354.466871 1371.57458,351.599545 C1374.65903,345.6699 1377.65367,339.612117 1382.97036,335.253558 C1383.22327,335.04928 1383.46336,334.828288 1383.69978,334.605439 C1387.92601,330.603439 1393.08325,330.622009 1397.84829,336.924927 C1395.9771,340.184096 1394.05092,343.52312 1391.41732,346.858429 C1390.21506,345.83518 1389.19974,344.862072 1388.07812,344.03753 C1385.52882,342.165597 1383.1518,342.039316 1380.87741,343.550976 C1378.71115,344.988353 1378.71848,346.84543 1380.94338,348.078528 C1386.57163,351.192846 1392.34284,351.59026 1398.14519,348.672793 C1400.74764,347.363554 1403.2053,345.757183 1405.72711,344.286378 C1406.68562,343.729255 1407.64596,343.173989 1408.92885,342.429302 C1409.18726,343.339269 1409.65094,344.089528 1409.45118,344.39966 C1407.00451,348.195524 1405.1553,352.470514 1400.85027,354.745433 C1395.4841,357.583046 1391.23221,361.92489 1386.71642,365.902748 C1385.37671,367.083849 1384.01134,368.244522 1382.59099,369.323483 C1382.14564,369.661471 1381.48037,369.702327 1380.68864,369.953032 C1379.97205,366.532297 1384.12863,364.918498 1383.34607,362.123598" id="Fill-60" fill="#FFFFFF"></path>
                    <path d="M718.415558,15.1357304 C718.298265,16.4653971 718.382569,17.093089 718.177306,17.5982138 C716.694644,21.2306553 715.252302,24.8853818 713.602864,28.4416833 C711.766489,32.3991132 710.978424,36.5496791 711.15803,40.8562395 C711.319308,44.705959 712.45009,48.2084052 715.384257,50.9828775 C718.129655,53.5753562 720.88605,53.3562212 723.198929,50.2604747 C724.062135,49.1072302 724.50565,47.5862846 726.422664,47.0737315 C727.016462,47.7998484 727.692732,48.6243903 728.466135,49.5714993 C727.186904,52.5353934 726.098275,55.4454322 724.703583,58.1994766 C722.799398,61.9581994 719.727778,64.0678383 715.450235,64.3742559 C713.183174,64.5358215 711.343134,63.9192722 709.717521,62.3537567 C705.324517,58.1196223 703.616432,52.8603818 703.841855,46.8360257 C703.959149,43.6845669 704.662909,40.6463898 705.859668,37.7679213 C708.872642,30.5123235 712.231998,23.4238626 716.544362,16.8460978 C716.857755,16.365115 717.407568,16.0438407 718.415558,15.1357304" id="Fill-62" fill="#FFFFFF"></path>
                    <path d="M1338.63475,72.1164077 C1339.29452,74.8035973 1338.72455,77.1639415 1337.99146,79.4982867 C1336.57295,84.0221249 1335.21491,88.5663911 1333.71942,93.0642303 C1332.44752,96.8860937 1332.27158,100.75067 1332.79757,104.704386 C1333.21909,107.878129 1334.47816,110.684172 1336.41167,113.161512 C1337.09527,114.039909 1337.99146,114.819881 1338.93714,115.399289 C1340.88714,116.597103 1342.73452,116.127263 1343.96976,114.205189 C1344.49392,113.388075 1344.82014,112.440966 1345.29298,111.584854 C1345.65036,110.93302 1346.09754,110.331327 1346.77197,109.295079 C1347.10369,110.227331 1347.40426,110.641459 1347.35661,111.005446 C1346.90576,114.405753 1346.43109,117.802346 1345.87761,121.185939 C1345.72,122.142334 1345.34063,123.076443 1344.96309,123.978982 C1342.87563,128.976375 1337.76787,130.038623 1333.99799,126.142476 C1331.46519,123.525856 1329.93487,120.268543 1328.95254,116.743812 C1327.27378,110.717599 1327.6,104.644959 1329.32642,98.789597 C1331.8189,90.3287566 1334.80622,82.0183394 1337.61759,73.654067 C1337.80636,73.0895158 1338.28836,72.6271037 1338.63475,72.1164077" id="Fill-64" fill="#FFFFFF"></path>
                    <path d="M869.733919,139.708977 C869.323392,141.255922 868.912865,142.802867 868.502339,144.349811 C866.651302,151.330562 865.080671,158.344739 865.408726,165.659764 C865.515023,168.01268 866.031847,170.194744 867.204781,172.209672 C868.813899,174.973002 871.313714,175.427986 873.648586,173.242207 C874.700561,172.259813 875.429979,170.932004 876.355497,169.802901 C877.035432,168.972788 877.797839,168.213244 878.613395,167.327418 C879.419787,168.957932 879.100895,170.17246 878.545585,171.41113 C877.34516,174.092748 876.190553,176.798508 875.021285,179.494983 C874.01696,181.810758 872.426169,183.63255 870.434014,185.11264 C868.25309,186.733867 866.495522,187.261277 863.343262,184.999358 C861.316286,183.54341 859.908766,181.450485 859.547722,178.91929 C859.203173,176.501376 858.922768,174.018465 859.074883,171.593123 C859.525729,164.374667 860.792131,157.28992 863.141664,150.431737 C864.750783,145.727762 866.436875,142.550304 869.733919,139.708977" id="Fill-66" fill="#FFFFFF"></path>
                    <path d="M963.237272,88.4141108 C962.593991,90.2080467 961.956208,92.0038396 961.307429,93.7959184 C959.362925,99.1628694 957.310291,104.494536 955.506905,109.909771 C954.368793,113.323077 953.831809,116.888664 953.97476,120.53782 C954.068228,122.903735 954.71884,125.052372 956.062216,126.961447 C957.636513,129.201081 959.91457,129.409074 961.81509,127.39786 C962.570166,126.601174 962.991689,125.481357 963.568992,124.511963 C964.148128,123.540712 964.672283,122.526748 965.350386,121.633495 C965.546485,121.375361 966.301562,121.275079 966.59846,121.451501 C966.928348,121.648351 967.208753,122.253758 967.184927,122.662315 C967.151939,123.295578 966.88253,123.926984 966.644278,124.532391 C965.511664,127.414574 964.46702,130.341326 963.178625,133.151083 C961.877402,135.990553 960.207804,138.540319 957.19483,139.953554 C955.140363,140.917377 953.479929,140.635101 951.883639,139.140155 C949.656897,137.052801 948.344678,134.478893 948.033117,131.437001 C947.68307,128.003267 947.813192,124.584389 948.58293,121.198939 C950.996608,110.600603 955.24666,100.728385 960.158321,91.1217283 C960.728293,90.0056253 961.584168,89.0399456 962.308088,88.005554 C962.617816,88.1411206 962.927544,88.2785442 963.237272,88.4141108" id="Fill-68" fill="#FFFFFF"></path>
                    <path d="M483.732024,224.921117 C484.245183,227.281461 483.541423,228.898974 482.885313,230.50906 C481.778357,233.229677 480.543111,235.90201 479.540619,238.661625 C478.706736,240.953258 477.949827,243.304317 477.486152,245.694374 C476.947335,248.478132 477.504479,251.23589 478.717732,253.780085 C479.196069,254.781049 479.951146,255.702159 480.755705,256.472846 C482.231036,257.886081 484.140719,257.642804 485.322816,255.902723 C485.956933,254.972328 486.332639,253.863653 486.86779,252.860832 C487.241662,252.158857 487.688843,251.495881 488.015066,250.959186 C489.602192,250.647197 489.897258,251.716873 490.188659,252.597127 C490.382926,253.185821 490.390257,253.911937 490.254636,254.524773 C489.144014,259.520308 487.567885,264.294852 483.873143,268.051718 C481.886486,270.072217 479.619425,270.378634 477.414676,268.629268 C475.21176,266.878045 473.653957,264.651411 472.944699,261.819369 C471.837742,257.38467 472.440704,252.992685 473.410207,248.69541 C475.184269,240.838119 478.325533,233.482239 482.1394,226.423492 C482.401478,225.940652 482.967785,225.626806 483.732024,224.921117" id="Fill-70" fill="#FFFFFF"></path>
                    <path d="M894.491987,277.717615 C893.069804,280.594226 891.686109,283.493123 890.210778,286.340021 C888.93338,288.806219 887.547852,291.216704 886.211807,293.651331 C884.641175,296.514943 884.619183,299.608832 884.899587,302.745435 C884.92891,303.07228 884.963732,303.406554 885.062698,303.714829 C885.62534,305.464195 886.301609,307.246988 888.280935,307.692686 C890.335402,308.156955 891.546823,306.643438 892.662943,305.215346 C893.16144,304.578369 893.487662,303.805825 893.940341,303.129849 C894.426009,302.403733 895.234234,301.781612 895.926998,302.374019 C896.365015,302.751006 896.507967,303.91725 896.295372,304.56537 C895.382683,307.362127 894.360031,310.129171 893.242079,312.849788 C891.999502,315.871251 889.470364,317.730185 886.831262,319.323556 C885.308281,320.242809 883.67717,319.65783 882.309969,318.58444 C879.355642,316.268665 878.26518,313.018782 878.507098,309.453195 C878.706863,306.539442 879.278668,303.597833 880.107053,300.797361 C881.932431,294.615154 885.12501,289.08478 888.750109,283.821825 C890.302413,281.567335 891.563317,279.058424 894.491987,277.717615" id="Fill-72" fill="#FFFFFF"></path>
                    <path d="M70.6888734,187.314761 C70.8208285,190.111518 69.822002,192.029878 69.2465313,194.013236 C68.3833253,196.991986 67.2836999,199.900168 66.4149958,202.878919 C65.3520245,206.520646 64.8773528,210.214371 65.6929084,214.015806 C66.092439,215.871026 66.9611431,217.362258 68.341173,218.567501 C69.6900469,219.748602 71.5832355,219.763458 72.6535376,218.333509 C73.7055126,216.931417 74.3817823,215.241477 75.2266612,213.679676 C75.6830057,212.840277 75.9890682,211.798457 77.3049533,212.05102 C78.2011481,213.272976 77.6934876,214.545073 77.350771,215.774458 C76.6946612,218.131088 76.1246886,220.536002 75.2138322,222.794207 C74.3048085,225.041269 73.1868559,227.243762 71.8563091,229.260547 C70.3589858,231.535466 68.4383066,231.936594 65.9146662,230.839062 C62.5149908,229.362686 60.6346312,226.694068 60.1141418,222.994771 C59.5808235,219.198907 60.0096774,215.48104 60.9993403,211.822599 C63.0941268,204.080447 65.7588859,196.550002 69.3161743,189.361259 C69.5892479,188.811565 69.9997748,188.332439 70.6888734,187.314761" id="Fill-74" fill="#FFFFFF"></path>
                    <path d="M1417.29829,353.805938 C1417.16816,354.771618 1417.2708,355.466164 1416.98489,355.898863 C1415.55355,358.079071 1414.10571,360.257422 1412.49292,362.296491 C1411.60406,363.420023 1410.48061,364.424701 1409.28751,365.210244 C1406.98746,366.725619 1404.60311,368.12214 1402.1821,369.433236 C1396.6125,372.450986 1391.228,375.745439 1386.23753,379.684298 C1385.24237,380.471699 1384.15374,381.136532 1383.22273,381.779081 C1381.91417,381.151389 1382.26055,380.334275 1382.61427,379.637872 C1385.65106,373.674799 1389.93044,368.866828 1395.7108,365.527805 C1402.16744,361.802509 1408.65523,358.134783 1415.14485,354.468914 C1415.65618,354.17921 1416.28846,354.108641 1417.29829,353.805938" id="Fill-76" fill="#FFFFFF"></path>
                    <path d="M869.522586,37.7842636 C869.727424,37.8447397 869.932261,37.9052158 870.137098,37.9656919 C870.014765,38.3832649 869.895276,38.8037178 869.772943,39.2212909 C869.408788,39.1032185 869.044633,38.9851461 868.680478,38.8670737 C868.962129,38.5070969 869.240935,38.1442404 869.522586,37.7842636" id="Fill-78" fill="#FFFFFF"></path>
                </g>
            </g>
        </g>
    </g>
</svg>